<svg width="64" height="54" viewBox="0 0 64 54" fill="none" xmlns="http://www.w3.org/2000/svg">
<path d="M47.6919 15.8142C45.6562 15.8141 43.6312 16.1128 41.6792 16.7011C43.8584 20.7904 44.6817 25.4875 44.0262 30.0923C43.3707 34.697 41.2716 38.9625 38.0418 42.253L26.5088 54H42.8201C45.6016 54 48.3558 53.4421 50.9256 52.3579C53.4954 51.2738 55.8304 49.6847 57.7972 47.6815C59.764 45.6782 61.3242 43.2999 62.3886 40.6825C63.4531 38.0651 64.001 35.2598 64.001 32.4267V15.8142H47.6919Z" fill="#009959"/>
<path d="M14.9752 11.7447L26.5057 0.000371646L38.0362 11.7447C42.0077 15.7899 44.2389 21.2763 44.2389 26.9971C44.2389 32.7178 42.0077 38.2042 38.0362 42.2494L26.5054 53.9941L14.9749 42.2497C11.0033 38.2045 8.77208 32.7179 8.77209 26.9971C8.77209 21.2762 11.0033 15.7897 14.9749 11.7444L14.9752 11.7447Z" fill="#6EBD6A"/>
<path d="M35.7003 30.1804L30.8817 32.139C29.4422 32.7224 28.1951 33.7107 27.2861 34.9886V31.0646C27.2815 29.7137 27.677 28.3928 28.4208 27.2743C29.1647 26.1558 30.2223 25.2917 31.4557 24.7949L36.2739 22.8363C36.4651 22.7584 36.6181 22.6064 36.6993 22.4136C36.7804 22.2208 36.7831 22.003 36.7066 21.8083C36.6301 21.6135 36.4808 21.4576 36.2915 21.375C36.1022 21.2923 35.8885 21.2896 35.6972 21.3675L30.8817 23.3238C29.4421 23.907 28.195 24.8953 27.2861 26.1734V22.2472C27.2814 20.8962 27.6768 19.5752 28.4207 18.4567C29.1645 17.3382 30.2223 16.4742 31.4557 15.9775C31.647 15.8996 31.8 15.7475 31.8811 15.5547C31.9623 15.3619 31.9649 15.1442 31.8884 14.9494C31.812 14.7546 31.6627 14.5987 31.4734 14.5161C31.2841 14.4334 31.0703 14.4308 30.8791 14.5086C29.4393 15.0918 28.192 16.0801 27.283 17.3582V8.50685C27.283 8.40302 27.2629 8.3002 27.2239 8.20427C27.1849 8.10835 27.1277 8.02118 27.0556 7.94777C26.9835 7.87435 26.898 7.81611 26.8038 7.77637C26.7096 7.73664 26.6087 7.71619 26.5067 7.71619C26.4048 7.71619 26.3038 7.73664 26.2097 7.77637C26.1155 7.81611 26.0299 7.87435 25.9578 7.94777C25.8857 8.02118 25.8286 8.10835 25.7895 8.20427C25.7505 8.3002 25.7305 8.40302 25.7305 8.50685V17.3582C24.8217 16.08 23.5746 15.0916 22.1348 14.5086C21.9436 14.4308 21.7298 14.4334 21.5405 14.5161C21.3512 14.5987 21.2019 14.7546 21.1254 14.9494C21.049 15.1442 21.0516 15.3619 21.1328 15.5547C21.2139 15.7475 21.3669 15.8996 21.5582 15.9775C22.7916 16.4742 23.8493 17.3383 24.5931 18.4568C25.337 19.5753 25.7324 20.8962 25.7278 22.2472V26.1734C24.8191 24.8952 23.5719 23.9068 22.1321 23.3238L17.3198 21.3653C17.1285 21.2874 16.9148 21.29 16.7255 21.3727C16.5362 21.4554 16.3869 21.6112 16.3104 21.806C16.2339 22.0008 16.2366 22.2185 16.3177 22.4113C16.3989 22.6041 16.5519 22.7562 16.7431 22.8341L21.5626 24.7927C22.7966 25.2894 23.8548 26.1537 24.5989 27.2727C25.343 28.3916 25.7384 29.7132 25.7336 31.0646V34.9908C24.8246 33.7128 23.5776 32.7245 22.1379 32.1413L17.3198 30.1804C17.2251 30.1419 17.1239 30.1227 17.0219 30.124C16.9199 30.1252 16.8192 30.147 16.7255 30.1879C16.6317 30.2288 16.5468 30.2881 16.4756 30.3625C16.4044 30.4368 16.3483 30.5247 16.3104 30.6212C16.2725 30.7176 16.2537 30.8207 16.2549 30.9246C16.2562 31.0285 16.2775 31.131 16.3177 31.2265C16.3579 31.322 16.4161 31.4084 16.4891 31.481C16.5621 31.5535 16.6484 31.6107 16.7431 31.6493L21.5626 33.6079C22.796 34.1047 23.8536 34.9687 24.5975 36.0872C25.3413 37.2057 25.7368 38.5266 25.7322 39.8776V44.6554C25.7322 44.8651 25.814 45.0662 25.9596 45.2145C26.1052 45.3628 26.3026 45.4461 26.5085 45.4461C26.7144 45.4461 26.9118 45.3628 27.0574 45.2145C27.203 45.0662 27.2848 44.8651 27.2848 44.6554V39.8776C27.2802 38.5266 27.6757 37.2057 28.4195 36.0872C29.1634 34.9687 30.221 34.1047 31.4544 33.6079L36.2725 31.6493C36.3672 31.6107 36.4535 31.5535 36.5265 31.481C36.5995 31.4084 36.6578 31.322 36.6979 31.2265C36.7381 31.131 36.7595 31.0285 36.7607 30.9246C36.762 30.8207 36.7431 30.7176 36.7053 30.6212C36.6674 30.5247 36.6113 30.4368 36.54 30.3625C36.4688 30.2881 36.3839 30.2288 36.2902 30.1879C36.1965 30.147 36.0957 30.1252 35.9938 30.124C35.8918 30.1227 35.7906 30.1419 35.6959 30.1804H35.7003Z" fill="#009959"/>
<path d="M58.6412 21.2722C58.4956 21.124 58.2982 21.0408 58.0923 21.0408C57.8864 21.0408 57.689 21.124 57.5434 21.2722L51.3985 27.5315C51.643 25.973 51.4473 24.3758 50.8342 22.9263C50.753 22.7335 50.5999 22.5815 50.4087 22.5038C50.2174 22.426 50.0037 22.4288 49.8145 22.5115C49.6252 22.5942 49.476 22.7502 49.3996 22.9449C49.3233 23.1397 49.326 23.3575 49.4073 23.5502C49.935 24.7899 50.0834 26.1629 49.8331 27.4899C49.5828 28.8168 48.9454 30.036 48.0042 30.9883L45.4017 33.6399C45.3297 33.7134 45.2726 33.8006 45.2337 33.8966C45.1947 33.9926 45.1747 34.0954 45.1748 34.1992C45.1749 34.3031 45.195 34.4059 45.2341 34.5018C45.2732 34.5977 45.3305 34.6848 45.4026 34.7582C45.4748 34.8315 45.5604 34.8897 45.6546 34.9294C45.7488 34.969 45.8498 34.9894 45.9517 34.9893C46.0537 34.9892 46.1546 34.9687 46.2488 34.9289C46.3429 34.8891 46.4285 34.8307 46.5005 34.7573L49.1052 32.1038C50.0402 31.1464 51.2367 30.4983 52.5387 30.2438C53.8407 29.9894 55.1878 30.1405 56.4043 30.6774C56.498 30.7189 56.5989 30.7411 56.701 30.7427C56.8032 30.7444 56.9047 30.7254 56.9997 30.687C57.0947 30.6486 57.1813 30.5915 57.2545 30.5189C57.3278 30.4464 57.3863 30.3598 57.4266 30.2641C57.4669 30.1685 57.4883 30.0657 57.4895 29.9616C57.4907 29.8575 57.4718 29.7542 57.4337 29.6576C57.3956 29.561 57.3392 29.473 57.2677 29.3987C57.1961 29.3244 57.1109 29.2651 57.0168 29.2244C55.5941 28.5997 54.0262 28.4004 52.4963 28.6497L58.6412 22.39C58.7866 22.2416 58.8682 22.0406 58.8682 21.8311C58.8682 21.6215 58.7866 21.4205 58.6412 21.2722V21.2722Z" fill="#6EBD6A"/>
</svg>
