<svg width="631" height="96" viewBox="0 0 631 96" fill="none" xmlns="http://www.w3.org/2000/svg">
<path d="M125.047 49.8066C123.641 50.3926 122.244 50.9297 120.857 51.418C119.49 51.9062 118.064 52.3262 116.58 52.6777C115.096 53.0293 113.533 53.3027 111.893 53.498C110.252 53.6934 108.465 53.791 106.531 53.791C104.148 53.791 101.854 53.5957 99.6465 53.2051C97.459 52.8145 95.418 52.2285 93.5234 51.4473C91.6289 50.666 89.9102 49.6992 88.3672 48.5469C86.8242 47.375 85.4961 46.0176 84.3828 44.4746C83.2891 42.9316 82.4395 41.1934 81.834 39.2598C81.248 37.3262 80.9551 35.207 80.9551 32.9023C80.9551 30.5977 81.248 28.4785 81.834 26.5449C82.4395 24.6113 83.2891 22.873 84.3828 21.3301C85.4961 19.7871 86.8242 18.4395 88.3672 17.2871C89.9102 16.1152 91.6289 15.1387 93.5234 14.3574C95.418 13.5762 97.459 12.9902 99.6465 12.5996C101.834 12.209 104.129 12.0137 106.531 12.0137C108.465 12.0137 110.252 12.1113 111.893 12.3066C113.533 12.502 115.096 12.7754 116.58 13.127C118.064 13.4785 119.49 13.8984 120.857 14.3867C122.244 14.8555 123.641 15.3828 125.047 15.9688V20.3633C123.934 19.6602 122.742 18.9961 121.473 18.3711C120.203 17.7461 118.826 17.1992 117.342 16.7305C115.877 16.2617 114.305 15.8906 112.625 15.6172C110.945 15.3438 109.148 15.207 107.234 15.207C103.367 15.207 100.018 15.627 97.1855 16.4668C94.3535 17.3066 92.0098 18.498 90.1543 20.041C88.3184 21.5645 86.9512 23.4199 86.0527 25.6074C85.1738 27.7754 84.7344 30.207 84.7344 32.9023C84.7344 35.5977 85.1738 38.0293 86.0527 40.1973C86.9512 42.3652 88.3184 44.2207 90.1543 45.7637C92.0098 47.2871 94.3535 48.4688 97.1855 49.3086C100.018 50.1289 103.367 50.5391 107.234 50.5391C109.148 50.5391 110.955 50.4023 112.654 50.1289C114.373 49.8555 115.975 49.4844 117.459 49.0156C118.963 48.5469 120.34 48.0098 121.59 47.4043C122.859 46.7793 124.012 46.125 125.047 45.4414V49.8066ZM135.916 53V12.7461H139.578V53H135.916ZM169.461 16.0859V53H165.828V16.0859H147.518V12.7461H187.771V16.0859H169.461ZM225.506 15.8516C224.939 15.6758 224.148 15.4902 223.133 15.2949C222.137 15.0801 220.848 14.9727 219.266 14.9727C217.078 14.9727 215.018 15.2461 213.084 15.793C211.17 16.3203 209.383 17.043 207.723 17.9609C206.082 18.8789 204.559 19.9531 203.152 21.1836C201.746 22.3945 200.477 23.6836 199.344 25.0508V53H195.682V12.7461H199.344V20.9492C200.652 19.6016 202.068 18.3613 203.592 17.2285C205.135 16.0957 206.756 15.1289 208.455 14.3281C210.154 13.5078 211.932 12.873 213.787 12.4238C215.662 11.9551 217.596 11.7207 219.588 11.7207C220.271 11.7207 220.887 11.7402 221.434 11.7793C221.98 11.7988 222.479 11.8379 222.928 11.8965C223.396 11.9355 223.836 11.9844 224.246 12.043C224.656 12.1016 225.076 12.1699 225.506 12.248V15.8516ZM235.848 12.7461V39.3184C235.828 41.5645 236.111 43.4102 236.697 44.8555C237.283 46.3008 238.123 47.4434 239.217 48.2832C240.33 49.1035 241.668 49.6797 243.23 50.0117C244.812 50.3242 246.59 50.4805 248.562 50.4805C250.848 50.4805 253.084 50.207 255.271 49.6602C257.459 49.0938 259.52 48.3906 261.453 47.5508C263.387 46.6914 265.154 45.7441 266.756 44.709C268.377 43.6738 269.754 42.6777 270.887 41.7207V12.7461H274.607V53H270.887V45.9102C269.52 46.7891 268.025 47.707 266.404 48.6641C264.783 49.6016 263.025 50.4707 261.131 51.2715C259.256 52.0527 257.244 52.6973 255.096 53.2051C252.947 53.7129 250.672 53.9668 248.27 53.9668C245.555 53.9668 243.182 53.625 241.15 52.9414C239.139 52.2578 237.459 51.3008 236.111 50.0703C234.783 48.8398 233.787 47.3848 233.123 45.7051C232.459 44.0059 232.127 42.1406 232.127 40.1094V12.7461H235.848ZM320.721 18.6934C319.959 18.3223 319.08 17.9316 318.084 17.5215C317.088 17.0918 315.945 16.7109 314.656 16.3789C313.387 16.0469 311.951 15.7734 310.35 15.5586C308.748 15.3242 306.971 15.207 305.018 15.207C302.654 15.207 300.545 15.3438 298.689 15.6172C296.854 15.8906 295.291 16.3203 294.002 16.9062C292.732 17.4727 291.756 18.1953 291.072 19.0742C290.408 19.9531 290.076 20.998 290.076 22.209C290.076 23.2246 290.389 24.1133 291.014 24.875C291.658 25.6367 292.518 26.3105 293.592 26.8965C294.686 27.4824 295.955 28.0195 297.4 28.5078C298.865 28.9766 300.408 29.4258 302.029 29.8555C303.67 30.2656 305.35 30.6855 307.068 31.1152C308.807 31.5449 310.486 32.0137 312.107 32.5215C313.748 33.0098 315.291 33.5664 316.736 34.1914C318.201 34.7969 319.471 35.5098 320.545 36.3301C321.639 37.1504 322.498 38.0879 323.123 39.1426C323.768 40.1973 324.09 41.418 324.09 42.8047C324.09 44.3086 323.807 45.627 323.24 46.7598C322.674 47.873 321.902 48.8398 320.926 49.6602C319.969 50.4609 318.836 51.1348 317.527 51.6816C316.238 52.209 314.852 52.6289 313.367 52.9414C311.902 53.2539 310.379 53.4688 308.797 53.5859C307.234 53.7227 305.691 53.791 304.168 53.791C300.672 53.791 297.498 53.5371 294.646 53.0293C291.814 52.5215 289.109 51.8281 286.531 50.9492V46.4668C289.188 48.0488 291.99 49.1328 294.939 49.7188C297.908 50.3047 301.023 50.5977 304.285 50.5977C306.59 50.5977 308.719 50.4609 310.672 50.1875C312.625 49.9141 314.314 49.4844 315.74 48.8984C317.166 48.293 318.27 47.5117 319.051 46.5547C319.852 45.5977 320.252 44.4258 320.252 43.0391C320.252 41.9258 319.93 40.9492 319.285 40.1094C318.66 39.2695 317.801 38.5371 316.707 37.9121C315.633 37.2676 314.363 36.7012 312.898 36.2129C311.453 35.7246 309.92 35.2754 308.299 34.8652C306.678 34.4355 304.998 34.0254 303.26 33.6348C301.541 33.2246 299.871 32.7852 298.25 32.3164C296.629 31.8477 295.086 31.3203 293.621 30.7344C292.176 30.1484 290.906 29.4648 289.812 28.6836C288.738 27.8828 287.879 26.9648 287.234 25.9297C286.609 24.8945 286.297 23.6934 286.297 22.3262C286.297 20.9785 286.551 19.7871 287.059 18.752C287.566 17.6973 288.26 16.7891 289.139 16.0273C290.037 15.2656 291.082 14.6309 292.273 14.123C293.465 13.5957 294.734 13.1855 296.082 12.8926C297.449 12.5801 298.865 12.3555 300.33 12.2188C301.795 12.082 303.24 12.0137 304.666 12.0137C306.229 12.0137 307.703 12.082 309.09 12.2188C310.496 12.3555 311.844 12.541 313.133 12.7754C314.441 12.9902 315.711 13.2441 316.941 13.5371C318.191 13.8301 319.451 14.1426 320.721 14.4746V18.6934ZM376.707 49.8066C375.301 50.3926 373.904 50.9297 372.518 51.418C371.15 51.9062 369.725 52.3262 368.24 52.6777C366.756 53.0293 365.193 53.3027 363.553 53.498C361.912 53.6934 360.125 53.791 358.191 53.791C355.809 53.791 353.514 53.5957 351.307 53.2051C349.119 52.8145 347.078 52.2285 345.184 51.4473C343.289 50.666 341.57 49.6992 340.027 48.5469C338.484 47.375 337.156 46.0176 336.043 44.4746C334.949 42.9316 334.1 41.1934 333.494 39.2598C332.908 37.3262 332.615 35.207 332.615 32.9023C332.615 30.5977 332.908 28.4785 333.494 26.5449C334.1 24.6113 334.949 22.873 336.043 21.3301C337.156 19.7871 338.484 18.4395 340.027 17.2871C341.57 16.1152 343.289 15.1387 345.184 14.3574C347.078 13.5762 349.119 12.9902 351.307 12.5996C353.494 12.209 355.789 12.0137 358.191 12.0137C360.125 12.0137 361.912 12.1113 363.553 12.3066C365.193 12.502 366.756 12.7754 368.24 13.127C369.725 13.4785 371.15 13.8984 372.518 14.3867C373.904 14.8555 375.301 15.3828 376.707 15.9688V20.3633C375.594 19.6602 374.402 18.9961 373.133 18.3711C371.863 17.7461 370.486 17.1992 369.002 16.7305C367.537 16.2617 365.965 15.8906 364.285 15.6172C362.605 15.3438 360.809 15.207 358.895 15.207C355.027 15.207 351.678 15.627 348.846 16.4668C346.014 17.3066 343.67 18.498 341.814 20.041C339.979 21.5645 338.611 23.4199 337.713 25.6074C336.834 27.7754 336.395 30.207 336.395 32.9023C336.395 35.5977 336.834 38.0293 337.713 40.1973C338.611 42.3652 339.979 44.2207 341.814 45.7637C343.67 47.2871 346.014 48.4688 348.846 49.3086C351.678 50.1289 355.027 50.5391 358.895 50.5391C360.809 50.5391 362.615 50.4023 364.314 50.1289C366.033 49.8555 367.635 49.4844 369.119 49.0156C370.623 48.5469 372 48.0098 373.25 47.4043C374.52 46.7793 375.672 46.125 376.707 45.4414V49.8066ZM424.021 53V48.5469C422.615 49.3086 421.014 50.0117 419.217 50.6562C417.439 51.3008 415.555 51.8574 413.562 52.3262C411.59 52.7949 409.559 53.1562 407.469 53.4102C405.379 53.6641 403.328 53.791 401.316 53.791C398.699 53.791 396.346 53.5566 394.256 53.0879C392.186 52.6191 390.428 51.9258 388.982 51.0078C387.537 50.0703 386.424 48.918 385.643 47.5508C384.861 46.1641 384.471 44.5625 384.471 42.7461C384.471 40.9492 384.92 39.3672 385.818 38C386.736 36.6133 388.035 35.4121 389.715 34.3965C391.395 33.3613 393.416 32.4922 395.779 31.7891C398.162 31.0664 400.818 30.4609 403.748 29.9727C406.678 29.4648 409.842 29.0547 413.24 28.7422C416.658 28.4102 420.252 28.1367 424.021 27.9219V24.8457C424.021 23.5957 423.787 22.4922 423.318 21.5352C422.85 20.5781 422.195 19.748 421.355 19.0449C420.516 18.3223 419.529 17.7266 418.396 17.2578C417.264 16.7695 416.033 16.3789 414.705 16.0859C413.396 15.793 412.01 15.5879 410.545 15.4707C409.1 15.334 407.645 15.2656 406.18 15.2656C404.207 15.2656 402.41 15.3633 400.789 15.5586C399.168 15.7539 397.654 16.0273 396.248 16.3789C394.842 16.7109 393.494 17.1016 392.205 17.5508C390.916 18 389.617 18.4785 388.309 18.9863V14.709C391.023 13.9863 393.914 13.3613 396.98 12.834C400.066 12.2871 403.338 12.0137 406.795 12.0137C409.725 12.0137 412.459 12.2676 414.998 12.7754C417.537 13.2637 419.744 14.0547 421.619 15.1484C423.494 16.2422 424.969 17.6582 426.043 19.3965C427.117 21.1152 427.654 23.2148 427.654 25.6953V53H424.021ZM424.021 31.1738C417.635 31.5254 412.176 32.0234 407.645 32.668C403.133 33.3125 399.441 34.1035 396.57 35.041C393.699 35.9785 391.59 37.0723 390.242 38.3223C388.914 39.5723 388.25 40.9883 388.25 42.5703C388.25 43.8594 388.572 45.002 389.217 45.998C389.881 46.9941 390.828 47.834 392.059 48.5176C393.289 49.1816 394.783 49.6895 396.541 50.041C398.299 50.373 400.271 50.5391 402.459 50.5391C403.748 50.5391 405.076 50.4707 406.443 50.334C407.83 50.1777 409.207 49.9727 410.574 49.7188C411.941 49.4453 413.289 49.1328 414.617 48.7812C415.945 48.4102 417.195 48.0098 418.367 47.5801C419.539 47.1504 420.604 46.6914 421.561 46.2031C422.537 45.7148 423.357 45.2168 424.021 44.709V31.1738ZM479.861 53V26.4277C479.861 24.2012 479.559 22.375 478.953 20.9492C478.367 19.5039 477.518 18.3613 476.404 17.5215C475.311 16.6816 473.973 16.0957 472.391 15.7637C470.809 15.4316 469.031 15.2656 467.059 15.2656C464.773 15.2656 462.527 15.5488 460.32 16.1152C458.133 16.6621 456.062 17.3652 454.109 18.2246C452.156 19.0645 450.359 20.002 448.719 21.0371C447.078 22.0723 445.691 23.0684 444.559 24.0254V53H440.896V12.7461H444.559V19.8066C445.926 18.9473 447.43 18.0488 449.07 17.1113C450.73 16.1543 452.508 15.2852 454.402 14.5039C456.316 13.7031 458.357 13.0488 460.525 12.541C462.693 12.0332 464.979 11.7793 467.381 11.7793C470.096 11.7793 472.459 12.1113 474.471 12.7754C476.502 13.4199 478.182 14.3477 479.51 15.5586C480.857 16.75 481.863 18.2051 482.527 19.9238C483.191 21.623 483.523 23.5273 483.523 25.6367V53H479.861Z" fill="#273617"/>
<path d="M80.4766 76.582V78.6426C80.763 78.3952 81.082 78.1315 81.4336 77.8516C81.7852 77.5716 82.1725 77.3145 82.5957 77.0801C83.0189 76.8457 83.4779 76.6504 83.9727 76.4941C84.4674 76.3379 84.998 76.2598 85.5645 76.2598C86.4694 76.2598 87.2702 76.4648 87.9668 76.875C88.6634 77.2786 89.2266 77.9069 89.6562 78.7598C90.0729 78.3757 90.5026 78.0306 90.9453 77.7246C91.388 77.4121 91.8405 77.1484 92.3027 76.9336C92.7715 76.7188 93.2533 76.5527 93.748 76.4355C94.2428 76.3184 94.7539 76.2598 95.2812 76.2598C95.9518 76.2598 96.5605 76.3737 97.1074 76.6016C97.6608 76.8294 98.1296 77.1419 98.5137 77.5391C98.8978 77.9362 99.194 78.4049 99.4023 78.9453C99.6172 79.4792 99.7246 80.0521 99.7246 80.6641V90H98.5039V80.9766C98.5039 80.4167 98.4355 79.9186 98.2988 79.4824C98.1686 79.0397 97.9603 78.6654 97.6738 78.3594C97.3939 78.0534 97.0326 77.8223 96.5898 77.666C96.1536 77.5033 95.6296 77.4219 95.0176 77.4219C94.5293 77.4219 94.0443 77.4935 93.5625 77.6367C93.0872 77.7734 92.6315 77.959 92.1953 78.1934C91.7591 78.4212 91.3522 78.6816 90.9746 78.9746C90.597 79.2676 90.265 79.5703 89.9785 79.8828C90.0111 80.0651 90.0273 80.2214 90.0273 80.3516C90.0339 80.4818 90.0371 80.638 90.0371 80.8203V90H88.8164V80.9766C88.8164 80.3125 88.7285 79.7559 88.5527 79.3066C88.377 78.8509 88.1328 78.4831 87.8203 78.2031C87.5078 77.9232 87.1367 77.7246 86.707 77.6074C86.2839 77.4837 85.8216 77.4219 85.3203 77.4219C84.8451 77.4219 84.373 77.5033 83.9043 77.666C83.4421 77.8288 82.9993 78.0404 82.5762 78.3008C82.153 78.5612 81.7624 78.8542 81.4043 79.1797C81.0462 79.4987 80.737 79.8177 80.4766 80.1367V90H79.2559V76.582H80.4766ZM116.326 90V88.5156C115.857 88.7695 115.324 89.0039 114.725 89.2188C114.132 89.4336 113.504 89.6191 112.84 89.7754C112.182 89.9316 111.505 90.0521 110.809 90.1367C110.112 90.2214 109.428 90.2637 108.758 90.2637C107.885 90.2637 107.101 90.1855 106.404 90.0293C105.714 89.873 105.128 89.6419 104.646 89.3359C104.165 89.0234 103.794 88.6393 103.533 88.1836C103.273 87.7214 103.143 87.1875 103.143 86.582C103.143 85.9831 103.292 85.4557 103.592 85C103.898 84.5378 104.331 84.1374 104.891 83.7988C105.451 83.4538 106.124 83.1641 106.912 82.9297C107.706 82.6888 108.592 82.487 109.568 82.3242C110.545 82.1549 111.6 82.0182 112.732 81.9141C113.872 81.8034 115.07 81.7122 116.326 81.6406V80.6152C116.326 80.1986 116.248 79.8307 116.092 79.5117C115.936 79.1927 115.717 78.916 115.438 78.6816C115.158 78.4408 114.829 78.2422 114.451 78.0859C114.074 77.9232 113.663 77.793 113.221 77.6953C112.785 77.5977 112.322 77.5293 111.834 77.4902C111.352 77.4447 110.867 77.4219 110.379 77.4219C109.721 77.4219 109.122 77.4544 108.582 77.5195C108.042 77.5846 107.537 77.6758 107.068 77.793C106.6 77.9036 106.15 78.0339 105.721 78.1836C105.291 78.3333 104.858 78.4928 104.422 78.6621V77.2363C105.327 76.9954 106.29 76.7871 107.312 76.6113C108.341 76.429 109.432 76.3379 110.584 76.3379C111.561 76.3379 112.472 76.4225 113.318 76.5918C114.165 76.7546 114.9 77.0182 115.525 77.3828C116.15 77.7474 116.642 78.2194 117 78.7988C117.358 79.3717 117.537 80.0716 117.537 80.8984V90H116.326ZM116.326 82.7246C114.197 82.8418 112.378 83.0078 110.867 83.2227C109.363 83.4375 108.133 83.7012 107.176 84.0137C106.219 84.3262 105.516 84.6908 105.066 85.1074C104.624 85.5241 104.402 85.9961 104.402 86.5234C104.402 86.9531 104.51 87.334 104.725 87.666C104.946 87.998 105.262 88.278 105.672 88.5059C106.082 88.7272 106.58 88.8965 107.166 89.0137C107.752 89.1243 108.41 89.1797 109.139 89.1797C109.568 89.1797 110.011 89.1569 110.467 89.1113C110.929 89.0592 111.388 88.9909 111.844 88.9062C112.299 88.8151 112.749 88.7109 113.191 88.5938C113.634 88.4701 114.051 88.3366 114.441 88.1934C114.832 88.0501 115.187 87.8971 115.506 87.7344C115.831 87.5716 116.105 87.4056 116.326 87.2363V82.7246ZM136.6 83.2812C136.6 84.1406 136.508 84.9056 136.326 85.5762C136.15 86.2402 135.9 86.8197 135.574 87.3145C135.249 87.8092 134.852 88.2292 134.383 88.5742C133.921 88.9193 133.403 89.196 132.83 89.4043C132.264 89.6126 131.645 89.7656 130.975 89.8633C130.311 89.9544 129.611 90 128.875 90H121.951V76.582H128.855C129.956 76.582 130.978 76.6895 131.922 76.9043C132.866 77.1191 133.683 77.487 134.373 78.0078C135.07 78.5221 135.613 79.209 136.004 80.0684C136.401 80.9277 136.6 81.9987 136.6 83.2812ZM135.34 83.2812C135.34 82.5521 135.268 81.9076 135.125 81.3477C134.982 80.7878 134.777 80.3027 134.51 79.8926C134.243 79.4759 133.917 79.1276 133.533 78.8477C133.149 78.5677 132.716 78.3431 132.234 78.1738C131.753 77.998 131.229 77.8743 130.662 77.8027C130.096 77.7311 129.493 77.6953 128.855 77.6953H123.172V88.877H128.855C129.812 88.877 130.688 88.7923 131.482 88.623C132.277 88.4473 132.957 88.1478 133.523 87.7246C134.096 87.2949 134.542 86.722 134.861 86.0059C135.18 85.2832 135.34 84.375 135.34 83.2812ZM153.68 89.2969C153.133 89.4661 152.625 89.6126 152.156 89.7363C151.688 89.8535 151.225 89.9479 150.77 90.0195C150.314 90.0977 149.848 90.153 149.373 90.1855C148.904 90.2246 148.387 90.2441 147.82 90.2441C146.505 90.2441 145.317 90.0846 144.256 89.7656C143.195 89.4466 142.29 88.9909 141.541 88.3984C140.799 87.7995 140.226 87.0768 139.822 86.2305C139.419 85.3841 139.217 84.4336 139.217 83.3789C139.217 82.3568 139.409 81.4193 139.793 80.5664C140.184 79.7135 140.727 78.9811 141.424 78.3691C142.12 77.7572 142.954 77.2819 143.924 76.9434C144.894 76.6048 145.965 76.4355 147.137 76.4355C148.354 76.4355 149.438 76.5983 150.389 76.9238C151.339 77.2493 152.14 77.7148 152.791 78.3203C153.442 78.9258 153.937 79.6615 154.275 80.5273C154.614 81.3867 154.783 82.3568 154.783 83.4375V83.7402H140.477C140.548 84.5736 140.757 85.3255 141.102 85.9961C141.447 86.6667 141.935 87.2363 142.566 87.7051C143.204 88.1738 143.986 88.5352 144.91 88.7891C145.841 89.0365 146.925 89.1602 148.162 89.1602C148.689 89.1602 149.223 89.1243 149.764 89.0527C150.304 88.9811 150.822 88.8867 151.316 88.7695C151.811 88.6458 152.264 88.5091 152.674 88.3594C153.084 88.2031 153.419 88.0436 153.68 87.8809V89.2969ZM153.582 82.6758C153.536 81.9922 153.383 81.3411 153.123 80.7227C152.863 80.0977 152.472 79.5475 151.951 79.0723C151.437 78.597 150.779 78.2194 149.979 77.9395C149.184 77.6595 148.23 77.5195 147.117 77.5195C146.069 77.5195 145.151 77.6595 144.363 77.9395C143.576 78.2194 142.908 78.597 142.361 79.0723C141.814 79.541 141.385 80.0879 141.072 80.7129C140.76 81.3314 140.561 81.9857 140.477 82.6758H153.582ZM172.742 77.7246C171.759 77.7246 170.913 77.793 170.203 77.9297C169.493 78.0599 168.908 78.265 168.445 78.5449C167.99 78.8249 167.651 79.1829 167.43 79.6191C167.208 80.0553 167.098 80.5762 167.098 81.1816V82.6758H178.562V83.8184H167.098V90H165.877V80.9766C165.877 80.2865 165.997 79.668 166.238 79.1211C166.486 78.5742 166.876 78.1152 167.41 77.7441C167.944 77.3665 168.628 77.0801 169.461 76.8848C170.301 76.6829 171.313 76.582 172.498 76.582H178.758V77.7246H172.742ZM198.348 83.3008C198.348 84.5052 198.13 85.5469 197.693 86.4258C197.257 87.2982 196.658 88.0208 195.896 88.5938C195.135 89.1602 194.236 89.5801 193.201 89.8535C192.166 90.127 191.049 90.2637 189.852 90.2637C188.647 90.2637 187.524 90.127 186.482 89.8535C185.441 89.5801 184.536 89.1602 183.768 88.5938C182.999 88.0208 182.397 87.2982 181.961 86.4258C181.525 85.5469 181.307 84.5052 181.307 83.3008C181.307 82.5 181.408 81.7741 181.609 81.123C181.811 80.4655 182.094 79.8796 182.459 79.3652C182.824 78.8444 183.263 78.3952 183.777 78.0176C184.298 77.64 184.874 77.3275 185.506 77.0801C186.144 76.8262 186.827 76.6406 187.557 76.5234C188.286 76.3997 189.051 76.3379 189.852 76.3379C191.049 76.3379 192.166 76.4746 193.201 76.748C194.236 77.0215 195.135 77.4447 195.896 78.0176C196.658 78.584 197.257 79.3066 197.693 80.1855C198.13 81.0579 198.348 82.0964 198.348 83.3008ZM197.088 83.3008C197.088 82.3503 196.932 81.5104 196.619 80.7812C196.313 80.0521 195.857 79.4401 195.252 78.9453C194.646 78.444 193.891 78.0664 192.986 77.8125C192.088 77.5521 191.043 77.4219 189.852 77.4219C188.66 77.4219 187.609 77.5521 186.697 77.8125C185.792 78.0729 185.034 78.4538 184.422 78.9551C183.81 79.4499 183.348 80.0651 183.035 80.8008C182.723 81.5299 182.566 82.3633 182.566 83.3008C182.566 84.2513 182.723 85.0911 183.035 85.8203C183.348 86.5495 183.81 87.1647 184.422 87.666C185.034 88.1608 185.792 88.5384 186.697 88.7988C187.609 89.0527 188.66 89.1797 189.852 89.1797C191.043 89.1797 192.088 89.0527 192.986 88.7988C193.891 88.5384 194.646 88.1608 195.252 87.666C195.857 87.1647 196.313 86.5495 196.619 85.8203C196.932 85.0911 197.088 84.2513 197.088 83.3008ZM211.873 77.6172C211.684 77.5586 211.421 77.4967 211.082 77.4316C210.75 77.36 210.32 77.3242 209.793 77.3242C209.064 77.3242 208.377 77.4154 207.732 77.5977C207.094 77.7734 206.499 78.0143 205.945 78.3203C205.398 78.6263 204.891 78.9844 204.422 79.3945C203.953 79.7982 203.53 80.2279 203.152 80.6836V90H201.932V76.582H203.152V79.3164C203.589 78.8672 204.061 78.4538 204.568 78.0762C205.083 77.6986 205.623 77.3763 206.189 77.1094C206.756 76.8359 207.348 76.6243 207.967 76.4746C208.592 76.3184 209.236 76.2402 209.9 76.2402C210.128 76.2402 210.333 76.2467 210.516 76.2598C210.698 76.2663 210.864 76.2793 211.014 76.2988C211.17 76.3118 211.316 76.3281 211.453 76.3477C211.59 76.3672 211.73 76.39 211.873 76.416V77.6172ZM228.523 77.7246C227.54 77.7246 226.694 77.793 225.984 77.9297C225.275 78.0599 224.689 78.265 224.227 78.5449C223.771 78.8249 223.432 79.1829 223.211 79.6191C222.99 80.0553 222.879 80.5762 222.879 81.1816V82.6758H234.344V83.8184H222.879V90H221.658V80.9766C221.658 80.2865 221.779 79.668 222.02 79.1211C222.267 78.5742 222.658 78.1152 223.191 77.7441C223.725 77.3665 224.409 77.0801 225.242 76.8848C226.082 76.6829 227.094 76.582 228.279 76.582H234.539V77.7246H228.523ZM239.246 85.3613C239.246 85.9668 239.295 86.4876 239.393 86.9238C239.49 87.36 239.695 87.7181 240.008 87.998C240.32 88.278 240.77 88.4863 241.355 88.623C241.948 88.7533 242.732 88.8184 243.709 88.8184H249.773V90H243.465C242.391 90 241.502 89.9154 240.799 89.7461C240.102 89.5703 239.546 89.3034 239.129 88.9453C238.719 88.5807 238.432 88.1217 238.27 87.5684C238.107 87.015 238.025 86.3574 238.025 85.5957V76.582H239.246V85.3613ZM252.225 90V76.582H253.445V90H252.225ZM271.053 80.7031C271.053 81.3737 270.942 81.9661 270.721 82.4805C270.506 82.9948 270.164 83.4277 269.695 83.7793C269.227 84.1309 268.621 84.3978 267.879 84.5801C267.143 84.7559 266.255 84.8438 265.213 84.8438H259.188V90H257.967V76.582H265.213C266.255 76.582 267.143 76.6732 267.879 76.8555C268.621 77.0312 269.227 77.2917 269.695 77.6367C270.164 77.9818 270.506 78.4115 270.721 78.9258C270.942 79.4401 271.053 80.0326 271.053 80.7031ZM269.793 80.7031C269.793 80.0651 269.686 79.5508 269.471 79.1602C269.262 78.7695 268.937 78.4701 268.494 78.2617C268.058 78.0469 267.501 77.9036 266.824 77.832C266.154 77.7604 265.356 77.7246 264.432 77.7246H259.188V83.7012H264.432C264.79 83.7012 265.171 83.7044 265.574 83.7109C265.984 83.7109 266.388 83.6914 266.785 83.6523C267.182 83.6068 267.56 83.5319 267.918 83.4277C268.283 83.3171 268.602 83.151 268.875 82.9297C269.155 82.7083 269.376 82.4186 269.539 82.0605C269.708 81.7025 269.793 81.25 269.793 80.7031ZM286.941 90C286.876 89.2708 286.697 88.6133 286.404 88.0273C286.111 87.4349 285.734 86.9108 285.271 86.4551C284.816 85.9993 284.292 85.6087 283.699 85.2832C283.107 84.9512 282.479 84.6777 281.814 84.4629C281.15 84.248 280.464 84.0918 279.754 83.9941C279.044 83.89 278.344 83.8379 277.654 83.8379H275.574V90H274.354V76.582H275.574V82.7637H277.322C278.019 82.7637 278.712 82.7018 279.402 82.5781C280.092 82.4479 280.75 82.2624 281.375 82.0215C282.007 81.7741 282.592 81.4746 283.133 81.123C283.68 80.765 284.161 80.3581 284.578 79.9023C284.995 79.4401 285.337 78.9323 285.604 78.3789C285.87 77.8255 286.036 77.2266 286.102 76.582H287.361C287.296 77.2917 287.137 77.9362 286.883 78.5156C286.635 79.0885 286.329 79.6061 285.965 80.0684C285.6 80.5306 285.193 80.9375 284.744 81.2891C284.295 81.6341 283.839 81.9336 283.377 82.1875C282.915 82.4349 282.462 82.6432 282.02 82.8125C281.577 82.9753 281.176 83.099 280.818 83.1836C281.268 83.2552 281.753 83.3659 282.273 83.5156C282.801 83.6589 283.325 83.8542 283.846 84.1016C284.373 84.3424 284.884 84.6419 285.379 85C285.874 85.3516 286.316 85.7682 286.707 86.25C287.104 86.7318 287.436 87.2819 287.703 87.9004C287.97 88.5189 288.136 89.2188 288.201 90H286.941ZM303.846 90V88.5156C303.377 88.7695 302.843 89.0039 302.244 89.2188C301.652 89.4336 301.023 89.6191 300.359 89.7754C299.702 89.9316 299.025 90.0521 298.328 90.1367C297.632 90.2214 296.948 90.2637 296.277 90.2637C295.405 90.2637 294.62 90.1855 293.924 90.0293C293.234 89.873 292.648 89.6419 292.166 89.3359C291.684 89.0234 291.313 88.6393 291.053 88.1836C290.792 87.7214 290.662 87.1875 290.662 86.582C290.662 85.9831 290.812 85.4557 291.111 85C291.417 84.5378 291.85 84.1374 292.41 83.7988C292.97 83.4538 293.644 83.1641 294.432 82.9297C295.226 82.6888 296.111 82.487 297.088 82.3242C298.064 82.1549 299.119 82.0182 300.252 81.9141C301.391 81.8034 302.589 81.7122 303.846 81.6406V80.6152C303.846 80.1986 303.768 79.8307 303.611 79.5117C303.455 79.1927 303.237 78.916 302.957 78.6816C302.677 78.4408 302.348 78.2422 301.971 78.0859C301.593 77.9232 301.183 77.793 300.74 77.6953C300.304 77.5977 299.842 77.5293 299.354 77.4902C298.872 77.4447 298.387 77.4219 297.898 77.4219C297.241 77.4219 296.642 77.4544 296.102 77.5195C295.561 77.5846 295.057 77.6758 294.588 77.793C294.119 77.9036 293.67 78.0339 293.24 78.1836C292.811 78.3333 292.378 78.4928 291.941 78.6621V77.2363C292.846 76.9954 293.81 76.7871 294.832 76.6113C295.861 76.429 296.951 76.3379 298.104 76.3379C299.08 76.3379 299.992 76.4225 300.838 76.5918C301.684 76.7546 302.42 77.0182 303.045 77.3828C303.67 77.7474 304.161 78.2194 304.52 78.7988C304.878 79.3717 305.057 80.0716 305.057 80.8984V90H303.846ZM303.846 82.7246C301.717 82.8418 299.897 83.0078 298.387 83.2227C296.883 83.4375 295.652 83.7012 294.695 84.0137C293.738 84.3262 293.035 84.6908 292.586 85.1074C292.143 85.5241 291.922 85.9961 291.922 86.5234C291.922 86.9531 292.029 87.334 292.244 87.666C292.465 87.998 292.781 88.278 293.191 88.5059C293.602 88.7272 294.1 88.8965 294.686 89.0137C295.271 89.1243 295.929 89.1797 296.658 89.1797C297.088 89.1797 297.531 89.1569 297.986 89.1113C298.449 89.0592 298.908 88.9909 299.363 88.9062C299.819 88.8151 300.268 88.7109 300.711 88.5938C301.154 88.4701 301.57 88.3366 301.961 88.1934C302.352 88.0501 302.706 87.8971 303.025 87.7344C303.351 87.5716 303.624 87.4056 303.846 87.2363V82.7246ZM319.412 77.6172C319.223 77.5586 318.96 77.4967 318.621 77.4316C318.289 77.36 317.859 77.3242 317.332 77.3242C316.603 77.3242 315.916 77.4154 315.271 77.5977C314.633 77.7734 314.038 78.0143 313.484 78.3203C312.938 78.6263 312.43 78.9844 311.961 79.3945C311.492 79.7982 311.069 80.2279 310.691 80.6836V90H309.471V76.582H310.691V79.3164C311.128 78.8672 311.6 78.4538 312.107 78.0762C312.622 77.6986 313.162 77.3763 313.729 77.1094C314.295 76.8359 314.887 76.6243 315.506 76.4746C316.131 76.3184 316.775 76.2402 317.439 76.2402C317.667 76.2402 317.872 76.2467 318.055 76.2598C318.237 76.2663 318.403 76.2793 318.553 76.2988C318.709 76.3118 318.855 76.3281 318.992 76.3477C319.129 76.3672 319.269 76.39 319.412 76.416V77.6172ZM327.117 77.6953V90H325.906V77.6953H319.803V76.582H333.221V77.6953H327.117ZM353.318 77.6172C353.13 77.5586 352.866 77.4967 352.527 77.4316C352.195 77.36 351.766 77.3242 351.238 77.3242C350.509 77.3242 349.822 77.4154 349.178 77.5977C348.54 77.7734 347.944 78.0143 347.391 78.3203C346.844 78.6263 346.336 78.9844 345.867 79.3945C345.398 79.7982 344.975 80.2279 344.598 80.6836V90H343.377V76.582H344.598V79.3164C345.034 78.8672 345.506 78.4538 346.014 78.0762C346.528 77.6986 347.068 77.3763 347.635 77.1094C348.201 76.8359 348.794 76.6243 349.412 76.4746C350.037 76.3184 350.682 76.2402 351.346 76.2402C351.574 76.2402 351.779 76.2467 351.961 76.2598C352.143 76.2663 352.309 76.2793 352.459 76.2988C352.615 76.3118 352.762 76.3281 352.898 76.3477C353.035 76.3672 353.175 76.39 353.318 76.416V77.6172ZM371.688 83.3008C371.688 84.5052 371.469 85.5469 371.033 86.4258C370.597 87.2982 369.998 88.0208 369.236 88.5938C368.475 89.1602 367.576 89.5801 366.541 89.8535C365.506 90.127 364.389 90.2637 363.191 90.2637C361.987 90.2637 360.864 90.127 359.822 89.8535C358.781 89.5801 357.876 89.1602 357.107 88.5938C356.339 88.0208 355.737 87.2982 355.301 86.4258C354.865 85.5469 354.646 84.5052 354.646 83.3008C354.646 82.5 354.747 81.7741 354.949 81.123C355.151 80.4655 355.434 79.8796 355.799 79.3652C356.163 78.8444 356.603 78.3952 357.117 78.0176C357.638 77.64 358.214 77.3275 358.846 77.0801C359.484 76.8262 360.167 76.6406 360.896 76.5234C361.626 76.3997 362.391 76.3379 363.191 76.3379C364.389 76.3379 365.506 76.4746 366.541 76.748C367.576 77.0215 368.475 77.4447 369.236 78.0176C369.998 78.584 370.597 79.3066 371.033 80.1855C371.469 81.0579 371.688 82.0964 371.688 83.3008ZM370.428 83.3008C370.428 82.3503 370.271 81.5104 369.959 80.7812C369.653 80.0521 369.197 79.4401 368.592 78.9453C367.986 78.444 367.231 78.0664 366.326 77.8125C365.428 77.5521 364.383 77.4219 363.191 77.4219C362 77.4219 360.949 77.5521 360.037 77.8125C359.132 78.0729 358.374 78.4538 357.762 78.9551C357.15 79.4499 356.688 80.0651 356.375 80.8008C356.062 81.5299 355.906 82.3633 355.906 83.3008C355.906 84.2513 356.062 85.0911 356.375 85.8203C356.688 86.5495 357.15 87.1647 357.762 87.666C358.374 88.1608 359.132 88.5384 360.037 88.7988C360.949 89.0527 362 89.1797 363.191 89.1797C364.383 89.1797 365.428 89.0527 366.326 88.7988C367.231 88.5384 367.986 88.1608 368.592 87.666C369.197 87.1647 369.653 86.5495 369.959 85.8203C370.271 85.0911 370.428 84.2513 370.428 83.3008ZM388.572 86.2988C388.572 86.8197 388.504 87.2721 388.367 87.6562C388.23 88.0404 388.038 88.3724 387.791 88.6523C387.55 88.9258 387.257 89.1504 386.912 89.3262C386.574 89.4954 386.199 89.6322 385.789 89.7363C385.379 89.834 384.939 89.9023 384.471 89.9414C384.002 89.9805 383.517 90 383.016 90H375.271V76.582H382.84C383.224 76.582 383.608 76.5983 383.992 76.6309C384.376 76.6634 384.744 76.7253 385.096 76.8164C385.454 76.901 385.783 77.0215 386.082 77.1777C386.388 77.334 386.652 77.5391 386.873 77.793C387.101 78.0469 387.277 78.3529 387.4 78.7109C387.531 79.069 387.596 79.4922 387.596 79.9805C387.596 80.4167 387.54 80.7943 387.43 81.1133C387.326 81.4323 387.163 81.7057 386.941 81.9336C386.727 82.1615 386.45 82.3503 386.111 82.5C385.773 82.6432 385.376 82.7572 384.92 82.8418C385.571 82.8874 386.128 82.998 386.59 83.1738C387.052 83.3496 387.43 83.584 387.723 83.877C388.016 84.1699 388.23 84.5215 388.367 84.9316C388.504 85.3353 388.572 85.791 388.572 86.2988ZM386.453 80C386.453 79.8112 386.44 79.6224 386.414 79.4336C386.388 79.2448 386.329 79.0658 386.238 78.8965C386.147 78.7207 386.014 78.5579 385.838 78.4082C385.669 78.2585 385.434 78.1315 385.135 78.0273C384.835 77.9167 384.464 77.832 384.021 77.7734C383.585 77.7083 383.058 77.6758 382.439 77.6758H376.492V82.3633H382.439C383.318 82.3633 384.021 82.3014 384.549 82.1777C385.076 82.0475 385.48 81.875 385.76 81.6602C386.046 81.4453 386.232 81.1947 386.316 80.9082C386.408 80.6217 386.453 80.319 386.453 80ZM387.293 86.2793C387.293 85.7715 387.205 85.3385 387.029 84.9805C386.854 84.6224 386.583 84.3294 386.219 84.1016C385.854 83.8737 385.385 83.7077 384.812 83.6035C384.24 83.4928 383.559 83.4375 382.771 83.4375H376.492V88.8965H382.938C383.751 88.8965 384.435 88.8509 384.988 88.7598C385.548 88.6621 385.997 88.5091 386.336 88.3008C386.681 88.0859 386.925 87.8125 387.068 87.4805C387.218 87.1484 387.293 86.748 387.293 86.2793ZM408.113 83.3008C408.113 84.5052 407.895 85.5469 407.459 86.4258C407.023 87.2982 406.424 88.0208 405.662 88.5938C404.9 89.1602 404.002 89.5801 402.967 89.8535C401.932 90.127 400.815 90.2637 399.617 90.2637C398.413 90.2637 397.29 90.127 396.248 89.8535C395.206 89.5801 394.301 89.1602 393.533 88.5938C392.765 88.0208 392.163 87.2982 391.727 86.4258C391.29 85.5469 391.072 84.5052 391.072 83.3008C391.072 82.5 391.173 81.7741 391.375 81.123C391.577 80.4655 391.86 79.8796 392.225 79.3652C392.589 78.8444 393.029 78.3952 393.543 78.0176C394.064 77.64 394.64 77.3275 395.271 77.0801C395.91 76.8262 396.593 76.6406 397.322 76.5234C398.051 76.3997 398.816 76.3379 399.617 76.3379C400.815 76.3379 401.932 76.4746 402.967 76.748C404.002 77.0215 404.9 77.4447 405.662 78.0176C406.424 78.584 407.023 79.3066 407.459 80.1855C407.895 81.0579 408.113 82.0964 408.113 83.3008ZM406.854 83.3008C406.854 82.3503 406.697 81.5104 406.385 80.7812C406.079 80.0521 405.623 79.4401 405.018 78.9453C404.412 78.444 403.657 78.0664 402.752 77.8125C401.854 77.5521 400.809 77.4219 399.617 77.4219C398.426 77.4219 397.374 77.5521 396.463 77.8125C395.558 78.0729 394.799 78.4538 394.188 78.9551C393.576 79.4499 393.113 80.0651 392.801 80.8008C392.488 81.5299 392.332 82.3633 392.332 83.3008C392.332 84.2513 392.488 85.0911 392.801 85.8203C393.113 86.5495 393.576 87.1647 394.188 87.666C394.799 88.1608 395.558 88.5384 396.463 88.7988C397.374 89.0527 398.426 89.1797 399.617 89.1797C400.809 89.1797 401.854 89.0527 402.752 88.7988C403.657 88.5384 404.412 88.1608 405.018 87.666C405.623 87.1647 406.079 86.5495 406.385 85.8203C406.697 85.0911 406.854 84.2513 406.854 83.3008ZM416.727 77.6953V90H415.516V77.6953H409.412V76.582H422.83V77.6953H416.727ZM425.467 90V76.582H426.688V90H425.467ZM444.969 88.9355C444.5 89.1309 444.035 89.3099 443.572 89.4727C443.117 89.6354 442.641 89.7754 442.146 89.8926C441.652 90.0098 441.131 90.1009 440.584 90.166C440.037 90.2311 439.441 90.2637 438.797 90.2637C438.003 90.2637 437.238 90.1986 436.502 90.0684C435.773 89.9382 435.092 89.7428 434.461 89.4824C433.829 89.222 433.257 88.8997 432.742 88.5156C432.228 88.125 431.785 87.6725 431.414 87.1582C431.049 86.6439 430.766 86.0645 430.564 85.4199C430.369 84.7754 430.271 84.069 430.271 83.3008C430.271 82.5326 430.369 81.8262 430.564 81.1816C430.766 80.5371 431.049 79.9577 431.414 79.4434C431.785 78.929 432.228 78.4798 432.742 78.0957C433.257 77.7051 433.829 77.3796 434.461 77.1191C435.092 76.8587 435.773 76.6634 436.502 76.5332C437.231 76.403 437.996 76.3379 438.797 76.3379C439.441 76.3379 440.037 76.3704 440.584 76.4355C441.131 76.5007 441.652 76.5918 442.146 76.709C442.641 76.8262 443.117 76.9661 443.572 77.1289C444.035 77.2852 444.5 77.4609 444.969 77.6562V79.1211C444.598 78.8867 444.201 78.6654 443.777 78.457C443.354 78.2487 442.895 78.0664 442.4 77.9102C441.912 77.7539 441.388 77.6302 440.828 77.5391C440.268 77.4479 439.669 77.4023 439.031 77.4023C437.742 77.4023 436.626 77.5423 435.682 77.8223C434.738 78.1022 433.956 78.4993 433.338 79.0137C432.726 79.5215 432.27 80.14 431.971 80.8691C431.678 81.5918 431.531 82.4023 431.531 83.3008C431.531 84.1992 431.678 85.0098 431.971 85.7324C432.27 86.4551 432.726 87.0736 433.338 87.5879C433.956 88.0957 434.738 88.4896 435.682 88.7695C436.626 89.043 437.742 89.1797 439.031 89.1797C439.669 89.1797 440.271 89.1341 440.838 89.043C441.411 88.9518 441.945 88.8281 442.439 88.6719C442.941 88.5156 443.4 88.3366 443.816 88.1348C444.24 87.9264 444.624 87.7083 444.969 87.4805V88.9355ZM459.432 78.5645C459.178 78.4408 458.885 78.3105 458.553 78.1738C458.221 78.0306 457.84 77.9036 457.41 77.793C456.987 77.6823 456.508 77.5911 455.975 77.5195C455.441 77.4414 454.848 77.4023 454.197 77.4023C453.41 77.4023 452.706 77.4479 452.088 77.5391C451.476 77.6302 450.955 77.7734 450.525 77.9688C450.102 78.1576 449.777 78.3984 449.549 78.6914C449.327 78.9844 449.217 79.3327 449.217 79.7363C449.217 80.0749 449.321 80.3711 449.529 80.625C449.744 80.8789 450.031 81.1035 450.389 81.2988C450.753 81.4941 451.176 81.6732 451.658 81.8359C452.146 81.9922 452.661 82.1419 453.201 82.2852C453.748 82.4219 454.308 82.5618 454.881 82.7051C455.46 82.8483 456.02 83.0046 456.561 83.1738C457.107 83.3366 457.622 83.5221 458.104 83.7305C458.592 83.9323 459.015 84.1699 459.373 84.4434C459.738 84.7168 460.024 85.0293 460.232 85.3809C460.447 85.7324 460.555 86.1393 460.555 86.6016C460.555 87.1029 460.46 87.5423 460.271 87.9199C460.083 88.291 459.826 88.6133 459.5 88.8867C459.181 89.1536 458.803 89.3783 458.367 89.5605C457.938 89.7363 457.475 89.8763 456.98 89.9805C456.492 90.0846 455.984 90.1562 455.457 90.1953C454.936 90.2409 454.422 90.2637 453.914 90.2637C452.749 90.2637 451.691 90.179 450.74 90.0098C449.796 89.8405 448.895 89.6094 448.035 89.3164V87.8223C448.921 88.3496 449.855 88.7109 450.838 88.9062C451.827 89.1016 452.866 89.1992 453.953 89.1992C454.721 89.1992 455.431 89.1536 456.082 89.0625C456.733 88.9714 457.296 88.8281 457.771 88.6328C458.247 88.431 458.615 88.1706 458.875 87.8516C459.142 87.5326 459.275 87.1419 459.275 86.6797C459.275 86.3086 459.168 85.9831 458.953 85.7031C458.745 85.4232 458.458 85.179 458.094 84.9707C457.736 84.7559 457.312 84.5671 456.824 84.4043C456.342 84.2415 455.831 84.0918 455.291 83.9551C454.751 83.8118 454.191 83.6751 453.611 83.5449C453.038 83.4082 452.482 83.2617 451.941 83.1055C451.401 82.9492 450.887 82.7734 450.398 82.5781C449.917 82.3828 449.493 82.1549 449.129 81.8945C448.771 81.6276 448.484 81.3216 448.27 80.9766C448.061 80.6315 447.957 80.2311 447.957 79.7754C447.957 79.3262 448.042 78.929 448.211 78.584C448.38 78.2324 448.611 77.9297 448.904 77.6758C449.204 77.4219 449.552 77.2103 449.949 77.041C450.346 76.8652 450.77 76.7285 451.219 76.6309C451.674 76.5267 452.146 76.4518 452.635 76.4062C453.123 76.3607 453.605 76.3379 454.08 76.3379C454.601 76.3379 455.092 76.3607 455.555 76.4062C456.023 76.4518 456.473 76.5137 456.902 76.5918C457.339 76.6634 457.762 76.748 458.172 76.8457C458.589 76.9434 459.008 77.0475 459.432 77.1582V78.5645ZM485.096 90V83.4961H473.074V90H471.854V76.582H473.074V82.3633H485.096V76.582H486.316V90H485.096ZM502.986 90V88.5156C502.518 88.7695 501.984 89.0039 501.385 89.2188C500.792 89.4336 500.164 89.6191 499.5 89.7754C498.842 89.9316 498.165 90.0521 497.469 90.1367C496.772 90.2214 496.089 90.2637 495.418 90.2637C494.546 90.2637 493.761 90.1855 493.064 90.0293C492.374 89.873 491.788 89.6419 491.307 89.3359C490.825 89.0234 490.454 88.6393 490.193 88.1836C489.933 87.7214 489.803 87.1875 489.803 86.582C489.803 85.9831 489.952 85.4557 490.252 85C490.558 84.5378 490.991 84.1374 491.551 83.7988C492.111 83.4538 492.785 83.1641 493.572 82.9297C494.367 82.6888 495.252 82.487 496.229 82.3242C497.205 82.1549 498.26 82.0182 499.393 81.9141C500.532 81.8034 501.73 81.7122 502.986 81.6406V80.6152C502.986 80.1986 502.908 79.8307 502.752 79.5117C502.596 79.1927 502.378 78.916 502.098 78.6816C501.818 78.4408 501.489 78.2422 501.111 78.0859C500.734 77.9232 500.324 77.793 499.881 77.6953C499.445 77.5977 498.982 77.5293 498.494 77.4902C498.012 77.4447 497.527 77.4219 497.039 77.4219C496.382 77.4219 495.783 77.4544 495.242 77.5195C494.702 77.5846 494.197 77.6758 493.729 77.793C493.26 77.9036 492.811 78.0339 492.381 78.1836C491.951 78.3333 491.518 78.4928 491.082 78.6621V77.2363C491.987 76.9954 492.951 76.7871 493.973 76.6113C495.001 76.429 496.092 76.3379 497.244 76.3379C498.221 76.3379 499.132 76.4225 499.979 76.5918C500.825 76.7546 501.561 77.0182 502.186 77.3828C502.811 77.7474 503.302 78.2194 503.66 78.7988C504.018 79.3717 504.197 80.0716 504.197 80.8984V90H502.986ZM502.986 82.7246C500.857 82.8418 499.038 83.0078 497.527 83.2227C496.023 83.4375 494.793 83.7012 493.836 84.0137C492.879 84.3262 492.176 84.6908 491.727 85.1074C491.284 85.5241 491.062 85.9961 491.062 86.5234C491.062 86.9531 491.17 87.334 491.385 87.666C491.606 87.998 491.922 88.278 492.332 88.5059C492.742 88.7272 493.24 88.8965 493.826 89.0137C494.412 89.1243 495.07 89.1797 495.799 89.1797C496.229 89.1797 496.671 89.1569 497.127 89.1113C497.589 89.0592 498.048 88.9909 498.504 88.9062C498.96 88.8151 499.409 88.7109 499.852 88.5938C500.294 88.4701 500.711 88.3366 501.102 88.1934C501.492 88.0501 501.847 87.8971 502.166 87.7344C502.492 87.5716 502.765 87.4056 502.986 87.2363V82.7246ZM522.371 88.9355C521.902 89.1309 521.437 89.3099 520.975 89.4727C520.519 89.6354 520.044 89.7754 519.549 89.8926C519.054 90.0098 518.533 90.1009 517.986 90.166C517.439 90.2311 516.844 90.2637 516.199 90.2637C515.405 90.2637 514.64 90.1986 513.904 90.0684C513.175 89.9382 512.495 89.7428 511.863 89.4824C511.232 89.222 510.659 88.8997 510.145 88.5156C509.63 88.125 509.188 87.6725 508.816 87.1582C508.452 86.6439 508.169 86.0645 507.967 85.4199C507.771 84.7754 507.674 84.069 507.674 83.3008C507.674 82.5326 507.771 81.8262 507.967 81.1816C508.169 80.5371 508.452 79.9577 508.816 79.4434C509.188 78.929 509.63 78.4798 510.145 78.0957C510.659 77.7051 511.232 77.3796 511.863 77.1191C512.495 76.8587 513.175 76.6634 513.904 76.5332C514.633 76.403 515.398 76.3379 516.199 76.3379C516.844 76.3379 517.439 76.3704 517.986 76.4355C518.533 76.5007 519.054 76.5918 519.549 76.709C520.044 76.8262 520.519 76.9661 520.975 77.1289C521.437 77.2852 521.902 77.4609 522.371 77.6562V79.1211C522 78.8867 521.603 78.6654 521.18 78.457C520.757 78.2487 520.298 78.0664 519.803 77.9102C519.314 77.7539 518.79 77.6302 518.23 77.5391C517.671 77.4479 517.072 77.4023 516.434 77.4023C515.145 77.4023 514.028 77.5423 513.084 77.8223C512.14 78.1022 511.359 78.4993 510.74 79.0137C510.128 79.5215 509.673 80.14 509.373 80.8691C509.08 81.5918 508.934 82.4023 508.934 83.3008C508.934 84.1992 509.08 85.0098 509.373 85.7324C509.673 86.4551 510.128 87.0736 510.74 87.5879C511.359 88.0957 512.14 88.4896 513.084 88.7695C514.028 89.043 515.145 89.1797 516.434 89.1797C517.072 89.1797 517.674 89.1341 518.24 89.043C518.813 88.9518 519.347 88.8281 519.842 88.6719C520.343 88.5156 520.802 88.3366 521.219 88.1348C521.642 87.9264 522.026 87.7083 522.371 87.4805V88.9355ZM538.582 90C538.517 89.2708 538.338 88.6133 538.045 88.0273C537.752 87.4349 537.374 86.9108 536.912 86.4551C536.456 85.9993 535.932 85.6087 535.34 85.2832C534.747 84.9512 534.119 84.6777 533.455 84.4629C532.791 84.248 532.104 84.0918 531.395 83.9941C530.685 83.89 529.985 83.8379 529.295 83.8379H527.215V90H525.994V76.582H527.215V82.7637H528.963C529.66 82.7637 530.353 82.7018 531.043 82.5781C531.733 82.4479 532.391 82.2624 533.016 82.0215C533.647 81.7741 534.233 81.4746 534.773 81.123C535.32 80.765 535.802 80.3581 536.219 79.9023C536.635 79.4401 536.977 78.9323 537.244 78.3789C537.511 77.8255 537.677 77.2266 537.742 76.582H539.002C538.937 77.2917 538.777 77.9362 538.523 78.5156C538.276 79.0885 537.97 79.6061 537.605 80.0684C537.241 80.5306 536.834 80.9375 536.385 81.2891C535.936 81.6341 535.48 81.9336 535.018 82.1875C534.555 82.4349 534.103 82.6432 533.66 82.8125C533.217 82.9753 532.817 83.099 532.459 83.1836C532.908 83.2552 533.393 83.3659 533.914 83.5156C534.441 83.6589 534.965 83.8542 535.486 84.1016C536.014 84.3424 536.525 84.6419 537.02 85C537.514 85.3516 537.957 85.7682 538.348 86.25C538.745 86.7318 539.077 87.2819 539.344 87.9004C539.611 88.5189 539.777 89.2188 539.842 90H538.582ZM555.486 90V88.5156C555.018 88.7695 554.484 89.0039 553.885 89.2188C553.292 89.4336 552.664 89.6191 552 89.7754C551.342 89.9316 550.665 90.0521 549.969 90.1367C549.272 90.2214 548.589 90.2637 547.918 90.2637C547.046 90.2637 546.261 90.1855 545.564 90.0293C544.874 89.873 544.288 89.6419 543.807 89.3359C543.325 89.0234 542.954 88.6393 542.693 88.1836C542.433 87.7214 542.303 87.1875 542.303 86.582C542.303 85.9831 542.452 85.4557 542.752 85C543.058 84.5378 543.491 84.1374 544.051 83.7988C544.611 83.4538 545.285 83.1641 546.072 82.9297C546.867 82.6888 547.752 82.487 548.729 82.3242C549.705 82.1549 550.76 82.0182 551.893 81.9141C553.032 81.8034 554.23 81.7122 555.486 81.6406V80.6152C555.486 80.1986 555.408 79.8307 555.252 79.5117C555.096 79.1927 554.878 78.916 554.598 78.6816C554.318 78.4408 553.989 78.2422 553.611 78.0859C553.234 77.9232 552.824 77.793 552.381 77.6953C551.945 77.5977 551.482 77.5293 550.994 77.4902C550.512 77.4447 550.027 77.4219 549.539 77.4219C548.882 77.4219 548.283 77.4544 547.742 77.5195C547.202 77.5846 546.697 77.6758 546.229 77.793C545.76 77.9036 545.311 78.0339 544.881 78.1836C544.451 78.3333 544.018 78.4928 543.582 78.6621V77.2363C544.487 76.9954 545.451 76.7871 546.473 76.6113C547.501 76.429 548.592 76.3379 549.744 76.3379C550.721 76.3379 551.632 76.4225 552.479 76.5918C553.325 76.7546 554.061 77.0182 554.686 77.3828C555.311 77.7474 555.802 78.2194 556.16 78.7988C556.518 79.3717 556.697 80.0716 556.697 80.8984V90H555.486ZM555.486 82.7246C553.357 82.8418 551.538 83.0078 550.027 83.2227C548.523 83.4375 547.293 83.7012 546.336 84.0137C545.379 84.3262 544.676 84.6908 544.227 85.1074C543.784 85.5241 543.562 85.9961 543.562 86.5234C543.562 86.9531 543.67 87.334 543.885 87.666C544.106 87.998 544.422 88.278 544.832 88.5059C545.242 88.7272 545.74 88.8965 546.326 89.0137C546.912 89.1243 547.57 89.1797 548.299 89.1797C548.729 89.1797 549.171 89.1569 549.627 89.1113C550.089 89.0592 550.548 88.9909 551.004 88.9062C551.46 88.8151 551.909 88.7109 552.352 88.5938C552.794 88.4701 553.211 88.3366 553.602 88.1934C553.992 88.0501 554.347 87.8971 554.666 87.7344C554.992 87.5716 555.265 87.4056 555.486 87.2363V82.7246ZM566.355 77.6953V90H565.145V77.6953H559.041V76.582H572.459V77.6953H566.355ZM588.338 90V83.4961H576.316V90H575.096V76.582H576.316V82.3633H588.338V76.582H589.559V90H588.338ZM610.184 83.3008C610.184 84.5052 609.965 85.5469 609.529 86.4258C609.093 87.2982 608.494 88.0208 607.732 88.5938C606.971 89.1602 606.072 89.5801 605.037 89.8535C604.002 90.127 602.885 90.2637 601.688 90.2637C600.483 90.2637 599.36 90.127 598.318 89.8535C597.277 89.5801 596.372 89.1602 595.604 88.5938C594.835 88.0208 594.233 87.2982 593.797 86.4258C593.361 85.5469 593.143 84.5052 593.143 83.3008C593.143 82.5 593.243 81.7741 593.445 81.123C593.647 80.4655 593.93 79.8796 594.295 79.3652C594.66 78.8444 595.099 78.3952 595.613 78.0176C596.134 77.64 596.71 77.3275 597.342 77.0801C597.98 76.8262 598.663 76.6406 599.393 76.5234C600.122 76.3997 600.887 76.3379 601.688 76.3379C602.885 76.3379 604.002 76.4746 605.037 76.748C606.072 77.0215 606.971 77.4447 607.732 78.0176C608.494 78.584 609.093 79.3066 609.529 80.1855C609.965 81.0579 610.184 82.0964 610.184 83.3008ZM608.924 83.3008C608.924 82.3503 608.768 81.5104 608.455 80.7812C608.149 80.0521 607.693 79.4401 607.088 78.9453C606.482 78.444 605.727 78.0664 604.822 77.8125C603.924 77.5521 602.879 77.4219 601.688 77.4219C600.496 77.4219 599.445 77.5521 598.533 77.8125C597.628 78.0729 596.87 78.4538 596.258 78.9551C595.646 79.4499 595.184 80.0651 594.871 80.8008C594.559 81.5299 594.402 82.3633 594.402 83.3008C594.402 84.2513 594.559 85.0911 594.871 85.8203C595.184 86.5495 595.646 87.1647 596.258 87.666C596.87 88.1608 597.628 88.5384 598.533 88.7988C599.445 89.0527 600.496 89.1797 601.688 89.1797C602.879 89.1797 603.924 89.0527 604.822 88.7988C605.727 88.5384 606.482 88.1608 607.088 87.666C607.693 87.1647 608.149 86.5495 608.455 85.8203C608.768 85.0911 608.924 84.2513 608.924 83.3008ZM626.756 90V81.1426C626.756 80.4004 626.655 79.7917 626.453 79.3164C626.258 78.8346 625.975 78.4538 625.604 78.1738C625.239 77.8939 624.793 77.6986 624.266 77.5879C623.738 77.4772 623.146 77.4219 622.488 77.4219C621.727 77.4219 620.978 77.5163 620.242 77.7051C619.513 77.8874 618.823 78.1217 618.172 78.4082C617.521 78.6882 616.922 79.0007 616.375 79.3457C615.828 79.6908 615.366 80.0228 614.988 80.3418V90H613.768V76.582H614.988V78.9355C615.444 78.6491 615.945 78.3496 616.492 78.0371C617.046 77.7181 617.638 77.4284 618.27 77.168C618.908 76.901 619.588 76.6829 620.311 76.5137C621.033 76.3444 621.795 76.2598 622.596 76.2598C623.501 76.2598 624.288 76.3704 624.959 76.5918C625.636 76.8066 626.196 77.1159 626.639 77.5195C627.088 77.9167 627.423 78.4017 627.645 78.9746C627.866 79.541 627.977 80.1758 627.977 80.8789V90H626.756Z" fill="#273617"/>
<path d="M47.6919 18.8142C45.6562 18.8141 43.6312 19.1128 41.6792 19.7011C43.8584 23.7904 44.6817 28.4875 44.0262 33.0923C43.3707 37.697 41.2716 41.9625 38.0418 45.253L26.5088 57H42.8201C45.6016 57 48.3558 56.4421 50.9256 55.3579C53.4954 54.2738 55.8304 52.6847 57.7972 50.6815C59.764 48.6782 61.3242 46.2999 62.3886 43.6825C63.4531 41.0651 64.001 38.2598 64.001 35.4267V18.8142H47.6919Z" fill="#009959"/>
<path d="M14.9752 14.7447L26.5057 3.00037L38.0362 14.7447C42.0077 18.7899 44.2389 24.2763 44.2389 29.9971C44.2389 35.7178 42.0077 41.2042 38.0362 45.2494L26.5054 56.9941L14.9749 45.2497C11.0033 41.2045 8.77208 35.7179 8.77209 29.9971C8.77209 24.2762 11.0033 18.7897 14.9749 14.7444L14.9752 14.7447Z" fill="#6EBD6A"/>
<path d="M35.7003 33.1805L30.8817 35.139C29.4422 35.7224 28.1951 36.7107 27.2861 37.9886V34.0646C27.2815 32.7137 27.677 31.3928 28.4208 30.2743C29.1647 29.1558 30.2223 28.2917 31.4557 27.7949L36.2739 25.8363C36.4651 25.7584 36.6181 25.6064 36.6993 25.4136C36.7804 25.2208 36.7831 25.003 36.7066 24.8083C36.6301 24.6135 36.4808 24.4576 36.2915 24.375C36.1022 24.2923 35.8885 24.2896 35.6972 24.3675L30.8817 26.3238C29.4421 26.907 28.195 27.8953 27.2861 29.1734V25.2472C27.2814 23.8962 27.6768 22.5752 28.4207 21.4567C29.1645 20.3382 30.2223 19.4742 31.4557 18.9775C31.647 18.8996 31.8 18.7475 31.8811 18.5547C31.9623 18.3619 31.9649 18.1442 31.8884 17.9494C31.812 17.7546 31.6627 17.5987 31.4734 17.5161C31.2841 17.4334 31.0703 17.4308 30.8791 17.5086C29.4393 18.0918 28.192 19.0801 27.283 20.3582V11.5068C27.283 11.403 27.2629 11.3002 27.2239 11.2043C27.1849 11.1083 27.1277 11.0212 27.0556 10.9478C26.9835 10.8743 26.898 10.8161 26.8038 10.7764C26.7096 10.7366 26.6087 10.7162 26.5067 10.7162C26.4048 10.7162 26.3038 10.7366 26.2097 10.7764C26.1155 10.8161 26.0299 10.8743 25.9578 10.9478C25.8857 11.0212 25.8286 11.1083 25.7895 11.2043C25.7505 11.3002 25.7305 11.403 25.7305 11.5068V20.3582C24.8217 19.08 23.5746 18.0916 22.1348 17.5086C21.9436 17.4308 21.7298 17.4334 21.5405 17.5161C21.3512 17.5987 21.2019 17.7546 21.1254 17.9494C21.049 18.1442 21.0516 18.3619 21.1328 18.5547C21.2139 18.7475 21.3669 18.8996 21.5582 18.9775C22.7916 19.4742 23.8493 20.3383 24.5931 21.4568C25.337 22.5753 25.7324 23.8962 25.7278 25.2472V29.1734C24.8191 27.8952 23.5719 26.9068 22.1321 26.3238L17.3198 24.3653C17.1285 24.2874 16.9148 24.29 16.7255 24.3727C16.5362 24.4554 16.3869 24.6112 16.3104 24.806C16.2339 25.0008 16.2366 25.2185 16.3177 25.4113C16.3989 25.6041 16.5519 25.7562 16.7431 25.8341L21.5626 27.7927C22.7966 28.2894 23.8548 29.1537 24.5989 30.2727C25.343 31.3916 25.7384 32.7132 25.7336 34.0646V37.9908C24.8246 36.7128 23.5776 35.7245 22.1379 35.1413L17.3198 33.1805C17.2251 33.1419 17.1239 33.1227 17.0219 33.124C16.9199 33.1252 16.8192 33.147 16.7255 33.1879C16.6317 33.2288 16.5468 33.2881 16.4756 33.3625C16.4044 33.4368 16.3483 33.5247 16.3104 33.6212C16.2725 33.7176 16.2537 33.8207 16.2549 33.9246C16.2562 34.0285 16.2775 34.131 16.3177 34.2265C16.3579 34.322 16.4161 34.4084 16.4891 34.481C16.5621 34.5535 16.6484 34.6107 16.7431 34.6493L21.5626 36.6079C22.796 37.1047 23.8536 37.9687 24.5975 39.0872C25.3413 40.2057 25.7368 41.5266 25.7322 42.8776V47.6554C25.7322 47.8651 25.814 48.0662 25.9596 48.2145C26.1052 48.3628 26.3026 48.4461 26.5085 48.4461C26.7144 48.4461 26.9118 48.3628 27.0574 48.2145C27.203 48.0662 27.2848 47.8651 27.2848 47.6554V42.8776C27.2802 41.5266 27.6757 40.2057 28.4195 39.0872C29.1634 37.9687 30.221 37.1047 31.4544 36.6079L36.2725 34.6493C36.3672 34.6107 36.4535 34.5535 36.5265 34.481C36.5995 34.4084 36.6578 34.322 36.6979 34.2265C36.7381 34.131 36.7595 34.0285 36.7607 33.9246C36.762 33.8207 36.7431 33.7176 36.7053 33.6212C36.6674 33.5247 36.6113 33.4368 36.54 33.3625C36.4688 33.2881 36.3839 33.2288 36.2902 33.1879C36.1965 33.147 36.0957 33.1252 35.9938 33.124C35.8918 33.1227 35.7906 33.1419 35.6959 33.1805H35.7003Z" fill="#009959"/>
<path d="M58.6412 24.2722C58.4956 24.124 58.2982 24.0408 58.0923 24.0408C57.8864 24.0408 57.689 24.124 57.5434 24.2722L51.3985 30.5315C51.643 28.973 51.4473 27.3758 50.8342 25.9263C50.753 25.7335 50.5999 25.5815 50.4087 25.5038C50.2174 25.426 50.0037 25.4288 49.8145 25.5115C49.6252 25.5942 49.476 25.7502 49.3996 25.9449C49.3233 26.1397 49.326 26.3575 49.4073 26.5502C49.935 27.7899 50.0834 29.1629 49.8331 30.4899C49.5828 31.8168 48.9454 33.036 48.0042 33.9883L45.4017 36.6399C45.3297 36.7134 45.2726 36.8006 45.2337 36.8966C45.1947 36.9926 45.1747 37.0954 45.1748 37.1992C45.1749 37.3031 45.195 37.4059 45.2341 37.5018C45.2732 37.5977 45.3305 37.6848 45.4026 37.7582C45.4748 37.8315 45.5604 37.8897 45.6546 37.9294C45.7488 37.969 45.8498 37.9894 45.9517 37.9893C46.0537 37.9892 46.1546 37.9687 46.2488 37.9289C46.3429 37.8891 46.4285 37.8307 46.5005 37.7573L49.1052 35.1038C50.0402 34.1464 51.2367 33.4983 52.5387 33.2438C53.8407 32.9894 55.1878 33.1405 56.4043 33.6774C56.498 33.7189 56.5989 33.7411 56.701 33.7427C56.8032 33.7444 56.9047 33.7254 56.9997 33.687C57.0947 33.6486 57.1813 33.5915 57.2545 33.5189C57.3278 33.4464 57.3863 33.3598 57.4266 33.2641C57.4669 33.1685 57.4883 33.0657 57.4895 32.9616C57.4907 32.8575 57.4718 32.7542 57.4337 32.6576C57.3956 32.561 57.3392 32.473 57.2677 32.3987C57.1961 32.3244 57.1109 32.2651 57.0168 32.2244C55.5941 31.5997 54.0262 31.4004 52.4963 31.6497L58.6412 25.39C58.7866 25.2416 58.8682 25.0406 58.8682 24.8311C58.8682 24.6215 58.7866 24.4205 58.6412 24.2722Z" fill="#6EBD6A"/>
</svg>
