<svg width="491" height="72" viewBox="0 0 491 72" fill="none" xmlns="http://www.w3.org/2000/svg">
<path d="M125.047 49.8066C123.641 50.3926 122.244 50.9297 120.857 51.418C119.49 51.9062 118.064 52.3262 116.58 52.6777C115.096 53.0293 113.533 53.3027 111.893 53.498C110.252 53.6934 108.465 53.791 106.531 53.791C104.148 53.791 101.854 53.5957 99.6465 53.2051C97.459 52.8145 95.418 52.2285 93.5234 51.4473C91.6289 50.666 89.9102 49.6992 88.3672 48.5469C86.8242 47.375 85.4961 46.0176 84.3828 44.4746C83.2891 42.9316 82.4395 41.1934 81.834 39.2598C81.248 37.3262 80.9551 35.207 80.9551 32.9023C80.9551 30.5977 81.248 28.4785 81.834 26.5449C82.4395 24.6113 83.2891 22.873 84.3828 21.3301C85.4961 19.7871 86.8242 18.4395 88.3672 17.2871C89.9102 16.1152 91.6289 15.1387 93.5234 14.3574C95.418 13.5762 97.459 12.9902 99.6465 12.5996C101.834 12.209 104.129 12.0137 106.531 12.0137C108.465 12.0137 110.252 12.1113 111.893 12.3066C113.533 12.502 115.096 12.7754 116.58 13.127C118.064 13.4785 119.49 13.8984 120.857 14.3867C122.244 14.8555 123.641 15.3828 125.047 15.9688V20.3633C123.934 19.6602 122.742 18.9961 121.473 18.3711C120.203 17.7461 118.826 17.1992 117.342 16.7305C115.877 16.2617 114.305 15.8906 112.625 15.6172C110.945 15.3438 109.148 15.207 107.234 15.207C103.367 15.207 100.018 15.627 97.1855 16.4668C94.3535 17.3066 92.0098 18.498 90.1543 20.041C88.3184 21.5645 86.9512 23.4199 86.0527 25.6074C85.1738 27.7754 84.7344 30.207 84.7344 32.9023C84.7344 35.5977 85.1738 38.0293 86.0527 40.1973C86.9512 42.3652 88.3184 44.2207 90.1543 45.7637C92.0098 47.2871 94.3535 48.4688 97.1855 49.3086C100.018 50.1289 103.367 50.5391 107.234 50.5391C109.148 50.5391 110.955 50.4023 112.654 50.1289C114.373 49.8555 115.975 49.4844 117.459 49.0156C118.963 48.5469 120.34 48.0098 121.59 47.4043C122.859 46.7793 124.012 46.125 125.047 45.4414V49.8066ZM135.916 53V12.7461H139.578V53H135.916ZM169.461 16.0859V53H165.828V16.0859H147.518V12.7461H187.771V16.0859H169.461ZM225.506 15.8516C224.939 15.6758 224.148 15.4902 223.133 15.2949C222.137 15.0801 220.848 14.9727 219.266 14.9727C217.078 14.9727 215.018 15.2461 213.084 15.793C211.17 16.3203 209.383 17.043 207.723 17.9609C206.082 18.8789 204.559 19.9531 203.152 21.1836C201.746 22.3945 200.477 23.6836 199.344 25.0508V53H195.682V12.7461H199.344V20.9492C200.652 19.6016 202.068 18.3613 203.592 17.2285C205.135 16.0957 206.756 15.1289 208.455 14.3281C210.154 13.5078 211.932 12.873 213.787 12.4238C215.662 11.9551 217.596 11.7207 219.588 11.7207C220.271 11.7207 220.887 11.7402 221.434 11.7793C221.98 11.7988 222.479 11.8379 222.928 11.8965C223.396 11.9355 223.836 11.9844 224.246 12.043C224.656 12.1016 225.076 12.1699 225.506 12.248V15.8516ZM235.848 12.7461V39.3184C235.828 41.5645 236.111 43.4102 236.697 44.8555C237.283 46.3008 238.123 47.4434 239.217 48.2832C240.33 49.1035 241.668 49.6797 243.23 50.0117C244.812 50.3242 246.59 50.4805 248.562 50.4805C250.848 50.4805 253.084 50.207 255.271 49.6602C257.459 49.0938 259.52 48.3906 261.453 47.5508C263.387 46.6914 265.154 45.7441 266.756 44.709C268.377 43.6738 269.754 42.6777 270.887 41.7207V12.7461H274.607V53H270.887V45.9102C269.52 46.7891 268.025 47.707 266.404 48.6641C264.783 49.6016 263.025 50.4707 261.131 51.2715C259.256 52.0527 257.244 52.6973 255.096 53.2051C252.947 53.7129 250.672 53.9668 248.27 53.9668C245.555 53.9668 243.182 53.625 241.15 52.9414C239.139 52.2578 237.459 51.3008 236.111 50.0703C234.783 48.8398 233.787 47.3848 233.123 45.7051C232.459 44.0059 232.127 42.1406 232.127 40.1094V12.7461H235.848ZM320.721 18.6934C319.959 18.3223 319.08 17.9316 318.084 17.5215C317.088 17.0918 315.945 16.7109 314.656 16.3789C313.387 16.0469 311.951 15.7734 310.35 15.5586C308.748 15.3242 306.971 15.207 305.018 15.207C302.654 15.207 300.545 15.3438 298.689 15.6172C296.854 15.8906 295.291 16.3203 294.002 16.9062C292.732 17.4727 291.756 18.1953 291.072 19.0742C290.408 19.9531 290.076 20.998 290.076 22.209C290.076 23.2246 290.389 24.1133 291.014 24.875C291.658 25.6367 292.518 26.3105 293.592 26.8965C294.686 27.4824 295.955 28.0195 297.4 28.5078C298.865 28.9766 300.408 29.4258 302.029 29.8555C303.67 30.2656 305.35 30.6855 307.068 31.1152C308.807 31.5449 310.486 32.0137 312.107 32.5215C313.748 33.0098 315.291 33.5664 316.736 34.1914C318.201 34.7969 319.471 35.5098 320.545 36.3301C321.639 37.1504 322.498 38.0879 323.123 39.1426C323.768 40.1973 324.09 41.418 324.09 42.8047C324.09 44.3086 323.807 45.627 323.24 46.7598C322.674 47.873 321.902 48.8398 320.926 49.6602C319.969 50.4609 318.836 51.1348 317.527 51.6816C316.238 52.209 314.852 52.6289 313.367 52.9414C311.902 53.2539 310.379 53.4688 308.797 53.5859C307.234 53.7227 305.691 53.791 304.168 53.791C300.672 53.791 297.498 53.5371 294.646 53.0293C291.814 52.5215 289.109 51.8281 286.531 50.9492V46.4668C289.188 48.0488 291.99 49.1328 294.939 49.7188C297.908 50.3047 301.023 50.5977 304.285 50.5977C306.59 50.5977 308.719 50.4609 310.672 50.1875C312.625 49.9141 314.314 49.4844 315.74 48.8984C317.166 48.293 318.27 47.5117 319.051 46.5547C319.852 45.5977 320.252 44.4258 320.252 43.0391C320.252 41.9258 319.93 40.9492 319.285 40.1094C318.66 39.2695 317.801 38.5371 316.707 37.9121C315.633 37.2676 314.363 36.7012 312.898 36.2129C311.453 35.7246 309.92 35.2754 308.299 34.8652C306.678 34.4355 304.998 34.0254 303.26 33.6348C301.541 33.2246 299.871 32.7852 298.25 32.3164C296.629 31.8477 295.086 31.3203 293.621 30.7344C292.176 30.1484 290.906 29.4648 289.812 28.6836C288.738 27.8828 287.879 26.9648 287.234 25.9297C286.609 24.8945 286.297 23.6934 286.297 22.3262C286.297 20.9785 286.551 19.7871 287.059 18.752C287.566 17.6973 288.26 16.7891 289.139 16.0273C290.037 15.2656 291.082 14.6309 292.273 14.123C293.465 13.5957 294.734 13.1855 296.082 12.8926C297.449 12.5801 298.865 12.3555 300.33 12.2188C301.795 12.082 303.24 12.0137 304.666 12.0137C306.229 12.0137 307.703 12.082 309.09 12.2188C310.496 12.3555 311.844 12.541 313.133 12.7754C314.441 12.9902 315.711 13.2441 316.941 13.5371C318.191 13.8301 319.451 14.1426 320.721 14.4746V18.6934ZM376.707 49.8066C375.301 50.3926 373.904 50.9297 372.518 51.418C371.15 51.9062 369.725 52.3262 368.24 52.6777C366.756 53.0293 365.193 53.3027 363.553 53.498C361.912 53.6934 360.125 53.791 358.191 53.791C355.809 53.791 353.514 53.5957 351.307 53.2051C349.119 52.8145 347.078 52.2285 345.184 51.4473C343.289 50.666 341.57 49.6992 340.027 48.5469C338.484 47.375 337.156 46.0176 336.043 44.4746C334.949 42.9316 334.1 41.1934 333.494 39.2598C332.908 37.3262 332.615 35.207 332.615 32.9023C332.615 30.5977 332.908 28.4785 333.494 26.5449C334.1 24.6113 334.949 22.873 336.043 21.3301C337.156 19.7871 338.484 18.4395 340.027 17.2871C341.57 16.1152 343.289 15.1387 345.184 14.3574C347.078 13.5762 349.119 12.9902 351.307 12.5996C353.494 12.209 355.789 12.0137 358.191 12.0137C360.125 12.0137 361.912 12.1113 363.553 12.3066C365.193 12.502 366.756 12.7754 368.24 13.127C369.725 13.4785 371.15 13.8984 372.518 14.3867C373.904 14.8555 375.301 15.3828 376.707 15.9688V20.3633C375.594 19.6602 374.402 18.9961 373.133 18.3711C371.863 17.7461 370.486 17.1992 369.002 16.7305C367.537 16.2617 365.965 15.8906 364.285 15.6172C362.605 15.3438 360.809 15.207 358.895 15.207C355.027 15.207 351.678 15.627 348.846 16.4668C346.014 17.3066 343.67 18.498 341.814 20.041C339.979 21.5645 338.611 23.4199 337.713 25.6074C336.834 27.7754 336.395 30.207 336.395 32.9023C336.395 35.5977 336.834 38.0293 337.713 40.1973C338.611 42.3652 339.979 44.2207 341.814 45.7637C343.67 47.2871 346.014 48.4688 348.846 49.3086C351.678 50.1289 355.027 50.5391 358.895 50.5391C360.809 50.5391 362.615 50.4023 364.314 50.1289C366.033 49.8555 367.635 49.4844 369.119 49.0156C370.623 48.5469 372 48.0098 373.25 47.4043C374.52 46.7793 375.672 46.125 376.707 45.4414V49.8066ZM424.021 53V48.5469C422.615 49.3086 421.014 50.0117 419.217 50.6562C417.439 51.3008 415.555 51.8574 413.562 52.3262C411.59 52.7949 409.559 53.1562 407.469 53.4102C405.379 53.6641 403.328 53.791 401.316 53.791C398.699 53.791 396.346 53.5566 394.256 53.0879C392.186 52.6191 390.428 51.9258 388.982 51.0078C387.537 50.0703 386.424 48.918 385.643 47.5508C384.861 46.1641 384.471 44.5625 384.471 42.7461C384.471 40.9492 384.92 39.3672 385.818 38C386.736 36.6133 388.035 35.4121 389.715 34.3965C391.395 33.3613 393.416 32.4922 395.779 31.7891C398.162 31.0664 400.818 30.4609 403.748 29.9727C406.678 29.4648 409.842 29.0547 413.24 28.7422C416.658 28.4102 420.252 28.1367 424.021 27.9219V24.8457C424.021 23.5957 423.787 22.4922 423.318 21.5352C422.85 20.5781 422.195 19.748 421.355 19.0449C420.516 18.3223 419.529 17.7266 418.396 17.2578C417.264 16.7695 416.033 16.3789 414.705 16.0859C413.396 15.793 412.01 15.5879 410.545 15.4707C409.1 15.334 407.645 15.2656 406.18 15.2656C404.207 15.2656 402.41 15.3633 400.789 15.5586C399.168 15.7539 397.654 16.0273 396.248 16.3789C394.842 16.7109 393.494 17.1016 392.205 17.5508C390.916 18 389.617 18.4785 388.309 18.9863V14.709C391.023 13.9863 393.914 13.3613 396.98 12.834C400.066 12.2871 403.338 12.0137 406.795 12.0137C409.725 12.0137 412.459 12.2676 414.998 12.7754C417.537 13.2637 419.744 14.0547 421.619 15.1484C423.494 16.2422 424.969 17.6582 426.043 19.3965C427.117 21.1152 427.654 23.2148 427.654 25.6953V53H424.021ZM424.021 31.1738C417.635 31.5254 412.176 32.0234 407.645 32.668C403.133 33.3125 399.441 34.1035 396.57 35.041C393.699 35.9785 391.59 37.0723 390.242 38.3223C388.914 39.5723 388.25 40.9883 388.25 42.5703C388.25 43.8594 388.572 45.002 389.217 45.998C389.881 46.9941 390.828 47.834 392.059 48.5176C393.289 49.1816 394.783 49.6895 396.541 50.041C398.299 50.373 400.271 50.5391 402.459 50.5391C403.748 50.5391 405.076 50.4707 406.443 50.334C407.83 50.1777 409.207 49.9727 410.574 49.7188C411.941 49.4453 413.289 49.1328 414.617 48.7812C415.945 48.4102 417.195 48.0098 418.367 47.5801C419.539 47.1504 420.604 46.6914 421.561 46.2031C422.537 45.7148 423.357 45.2168 424.021 44.709V31.1738ZM479.861 53V26.4277C479.861 24.2012 479.559 22.375 478.953 20.9492C478.367 19.5039 477.518 18.3613 476.404 17.5215C475.311 16.6816 473.973 16.0957 472.391 15.7637C470.809 15.4316 469.031 15.2656 467.059 15.2656C464.773 15.2656 462.527 15.5488 460.32 16.1152C458.133 16.6621 456.062 17.3652 454.109 18.2246C452.156 19.0645 450.359 20.002 448.719 21.0371C447.078 22.0723 445.691 23.0684 444.559 24.0254V53H440.896V12.7461H444.559V19.8066C445.926 18.9473 447.43 18.0488 449.07 17.1113C450.73 16.1543 452.508 15.2852 454.402 14.5039C456.316 13.7031 458.357 13.0488 460.525 12.541C462.693 12.0332 464.979 11.7793 467.381 11.7793C470.096 11.7793 472.459 12.1113 474.471 12.7754C476.502 13.4199 478.182 14.3477 479.51 15.5586C480.857 16.75 481.863 18.2051 482.527 19.9238C483.191 21.623 483.523 23.5273 483.523 25.6367V53H479.861Z" fill="#273617"/>
<path d="M47.6919 18.5214C45.6562 18.5212 43.6312 18.8144 41.6792 19.3918C43.8584 23.4054 44.6817 28.0156 44.0262 32.535C43.3707 37.0544 41.2716 41.241 38.0418 44.4705L26.5088 56H42.8201C45.6016 56 48.3558 55.4524 50.9256 54.3883C53.4954 53.3243 55.8304 51.7646 57.7972 49.7985C59.764 47.8323 61.3242 45.4981 62.3886 42.9291C63.4531 40.3602 64.001 37.6068 64.001 34.8262V18.5214H47.6919Z" fill="#009959"/>
<path d="M14.9752 14.5272L26.5057 3.00033L38.0362 14.5272C42.0077 18.4975 44.2389 23.8823 44.2389 29.4971C44.2389 35.1119 42.0077 40.4967 38.0362 44.4669L26.5054 55.9941L14.9749 44.4672C11.0033 40.4969 8.77209 35.112 8.77209 29.4971C8.77209 23.8822 11.0033 18.4972 14.9749 14.5269L14.9752 14.5272Z" fill="#6EBD6A"/>
<path d="M35.7003 32.6215L30.8817 34.5438C29.4422 35.1164 28.1951 36.0863 27.2861 37.3406V33.4893C27.2815 32.1634 27.677 30.8669 28.4208 29.7691C29.1647 28.6714 30.2223 27.8233 31.4557 27.3357L36.2739 25.4134C36.4651 25.3369 36.6181 25.1877 36.6993 24.9984C36.7804 24.8092 36.7831 24.5955 36.7066 24.4043C36.6301 24.2132 36.4808 24.0602 36.2915 23.9791C36.1022 23.8979 35.8885 23.8953 35.6972 23.9718L30.8817 25.8919C29.4421 26.4642 28.195 27.4343 27.2861 28.6886V24.8351C27.2814 23.5092 27.6768 22.2127 28.4207 21.1149C29.1645 20.0171 30.2223 19.169 31.4557 18.6815C31.647 18.6051 31.8 18.4558 31.8811 18.2666C31.9623 18.0774 31.9649 17.8637 31.8884 17.6725C31.812 17.4813 31.6627 17.3283 31.4734 17.2472C31.2841 17.1661 31.0703 17.1635 30.8791 17.2399C29.4393 17.8123 28.192 18.7823 27.283 20.0367V11.3493C27.283 11.2474 27.2629 11.1464 27.2239 11.0523C27.1849 10.9581 27.1277 10.8726 27.0556 10.8005C26.9835 10.7285 26.898 10.6713 26.8038 10.6323C26.7096 10.5933 26.6087 10.5732 26.5067 10.5732C26.4048 10.5732 26.3038 10.5933 26.2097 10.6323C26.1155 10.6713 26.0299 10.7285 25.9578 10.8005C25.8857 10.8726 25.8286 10.9581 25.7895 11.0523C25.7505 11.1464 25.7305 11.2474 25.7305 11.3493V20.0367C24.8217 18.7821 23.5746 17.8121 22.1348 17.2399C21.9436 17.1635 21.7298 17.1661 21.5405 17.2472C21.3512 17.3283 21.2019 17.4813 21.1254 17.6725C21.049 17.8637 21.0516 18.0774 21.1328 18.2666C21.2139 18.4558 21.3669 18.6051 21.5582 18.6815C22.7916 19.1691 23.8493 20.0171 24.5931 21.1149C25.337 22.2127 25.7324 23.5092 25.7278 24.8351V28.6886C24.8191 27.4341 23.5719 26.464 22.1321 25.8919L17.3198 23.9695C17.1285 23.8931 16.9148 23.8957 16.7255 23.9768C16.5362 24.058 16.3869 24.2109 16.3104 24.4021C16.2339 24.5933 16.2366 24.807 16.3177 24.9962C16.3989 25.1855 16.5519 25.3347 16.7431 25.4112L21.5626 27.3335C22.7966 27.821 23.8548 28.6693 24.5989 29.7676C25.343 30.8658 25.7384 32.1629 25.7336 33.4893V37.3428C24.8246 36.0885 23.5776 35.1185 22.1379 34.546L17.3198 32.6215C17.2251 32.5836 17.1239 32.5648 17.0219 32.5661C16.9199 32.5673 16.8192 32.5886 16.7255 32.6288C16.6317 32.669 16.5468 32.7272 16.4756 32.8002C16.4044 32.8731 16.3483 32.9594 16.3104 33.0541C16.2725 33.1487 16.2537 33.2499 16.2549 33.3518C16.2562 33.4538 16.2775 33.5545 16.3177 33.6482C16.3579 33.7419 16.4161 33.8267 16.4891 33.8979C16.5621 33.9691 16.6484 34.0253 16.7431 34.0631L21.5626 35.9854C22.796 36.473 23.8536 37.3211 24.5975 38.4189C25.3413 39.5166 25.7368 40.8131 25.7322 42.139V46.8284C25.7322 47.0342 25.814 47.2316 25.9596 47.3771C26.1052 47.5227 26.3026 47.6044 26.5085 47.6044C26.7144 47.6044 26.9118 47.5227 27.0574 47.3771C27.203 47.2316 27.2848 47.0342 27.2848 46.8284V42.139C27.2802 40.8131 27.6757 39.5166 28.4195 38.4189C29.1634 37.3211 30.221 36.473 31.4544 35.9854L36.2725 34.0631C36.3672 34.0253 36.4535 33.9691 36.5265 33.8979C36.5995 33.8267 36.6578 33.7419 36.6979 33.6482C36.7381 33.5545 36.7595 33.4538 36.7607 33.3518C36.762 33.2499 36.7431 33.1487 36.7053 33.0541C36.6674 32.9594 36.6113 32.8731 36.54 32.8002C36.4688 32.7272 36.3839 32.669 36.2902 32.6288C36.1965 32.5886 36.0957 32.5673 35.9938 32.5661C35.8918 32.5648 35.7906 32.5836 35.6959 32.6215H35.7003Z" fill="#009959"/>
<path d="M58.6412 23.8783C58.4956 23.7328 58.2982 23.6511 58.0923 23.6511C57.8864 23.6511 57.689 23.7328 57.5434 23.8783L51.3985 30.0217C51.643 28.492 51.4473 26.9244 50.8342 25.5017C50.753 25.3125 50.5999 25.1634 50.4087 25.087C50.2174 25.0107 50.0037 25.0134 49.8145 25.0946C49.6252 25.1758 49.476 25.3288 49.3996 25.52C49.3233 25.7112 49.326 25.9249 49.4073 26.1141C49.935 27.3308 50.0834 28.6784 49.8331 29.9808C49.5828 31.2832 48.9454 32.4798 48.0042 33.4144L45.4017 36.017C45.3297 36.0891 45.2726 36.1747 45.2337 36.2689C45.1947 36.3631 45.1747 36.464 45.1748 36.5659C45.1749 36.6678 45.195 36.7687 45.2341 36.8628C45.2732 36.957 45.3305 37.0425 45.4026 37.1145C45.4748 37.1865 45.5604 37.2436 45.6546 37.2825C45.7488 37.3214 45.8498 37.3414 45.9517 37.3413C46.0537 37.3413 46.1546 37.3211 46.2488 37.282C46.3429 37.2429 46.4285 37.1857 46.5005 37.1136L49.1052 34.5093C50.0402 33.5696 51.2367 32.9335 52.5387 32.6838C53.8407 32.434 55.1878 32.5823 56.4043 33.1093C56.498 33.15 56.5989 33.1718 56.701 33.1734C56.8032 33.175 56.9047 33.1564 56.9997 33.1187C57.0947 33.081 57.1813 33.025 57.2545 32.9538C57.3278 32.8825 57.3863 32.7975 57.4266 32.7037C57.4669 32.6098 57.4883 32.5089 57.4895 32.4067C57.4907 32.3046 57.4718 32.2032 57.4337 32.1084C57.3956 32.0136 57.3392 31.9272 57.2677 31.8543C57.1961 31.7813 57.1109 31.7232 57.0168 31.6832C55.5941 31.0701 54.0262 30.8745 52.4963 31.1192L58.6412 24.9753C58.7866 24.8298 58.8682 24.6325 58.8682 24.4268C58.8682 24.2211 58.7866 24.0238 58.6412 23.8783Z" fill="#6EBD6A"/>
</svg>
