<svg width="44" height="24" viewBox="0 0 44 24" fill="none" xmlns="http://www.w3.org/2000/svg">
<g clip-path="url(#clip0_162_810)">
<mask id="mask0_162_810" style="mask-type:luminance" maskUnits="userSpaceOnUse" x="-106" y="-25" width="155" height="111">
<path d="M-105.674 -24.3107H48.6721V85.5864H-105.674V-24.3107Z" fill="white"/>
</mask>
<g mask="url(#mask0_162_810)">
<path d="M43.8486 5.06031C43.8486 2.2704 41.5943 0 38.8238 0H5.02535C2.25408 0 0.000183105 2.2704 0.000183105 5.06031V18.1252C0.000183105 20.916 2.25408 23.1855 5.02535 23.1855H34.8011C35.6988 23.7209 36.7233 24.0023 37.7667 24H38.3383C41.3758 24 43.8465 21.6986 43.8465 18.8695V18.1693L43.8486 18.1252V5.06031Z" fill="white"/>
</g>
<mask id="mask1_162_810" style="mask-type:luminance" maskUnits="userSpaceOnUse" x="-89" y="-17" width="156" height="110">
<path d="M-88.0816 -16.9139H66.2649V92.9833H-88.0816V-16.9139Z" fill="white"/>
</mask>
<g mask="url(#mask1_162_810)">
<path d="M5.02532 21.3832H9.83819V8.18176H5.02514C4.60023 8.18169 4.17947 8.2659 3.78688 8.4296C3.3943 8.59329 3.03758 8.83325 2.73709 9.13579C2.43661 9.43832 2.19825 9.79749 2.03563 10.1928C1.87301 10.5881 1.78931 11.0118 1.78931 11.4397V18.1248C1.78931 18.989 2.13022 19.8178 2.73706 20.4289C3.3439 21.0399 4.16713 21.3832 5.02532 21.3832Z" fill="#00803D"/>
</g>
<path d="M4.24949 3.65519V5.45537H3.52716V2.30713H4.09128L5.54859 4.15624V2.30713H6.27074V5.45537H5.68958L4.24949 3.65519Z" fill="#7C7B7B"/>
<mask id="mask2_162_810" style="mask-type:luminance" maskUnits="userSpaceOnUse" x="-90" y="-25" width="155" height="111">
<path d="M-89.524 -24.413H64.8224V85.4841H-89.524V-24.413Z" fill="white"/>
</mask>
<g mask="url(#mask2_162_810)">
<path d="M8.2086 4.83458C8.33143 4.83458 8.43593 4.80891 8.521 4.75722C8.60625 4.70553 8.67555 4.63667 8.72816 4.55101C8.78295 4.4604 8.82085 4.36049 8.84 4.25618C8.86236 4.14541 8.87373 4.03205 8.87373 3.91667V2.30701H9.59551V3.91685C9.59712 4.12363 9.56972 4.32961 9.51411 4.52867C9.46409 4.70952 9.3787 4.87849 9.26295 5.02565C9.14717 5.16975 8.99941 5.28446 8.83156 5.36054C8.65685 5.44122 8.44931 5.48202 8.2086 5.48202C7.9589 5.48202 7.74623 5.43956 7.56986 5.35371C7.39386 5.26805 7.2505 5.15359 7.14086 5.00978C7.02802 4.86149 6.94569 4.69203 6.89868 4.51131C6.8464 4.31758 6.82037 4.11761 6.82131 3.91685V2.30701H7.54365V3.91685C7.54365 4.03778 7.5552 4.15353 7.57903 4.26301C7.60008 4.36644 7.63872 4.46544 7.69325 4.55562C7.74623 4.6411 7.81425 4.70922 7.89785 4.75925C7.98163 4.80984 8.08521 4.83458 8.2086 4.83458Z" fill="#7C7B7B"/>
</g>
<path d="M12.5323 2.9459H11.5816V5.45537H10.8598V2.9459H9.90424V2.30713H12.5323V2.9459ZM12.8895 5.45537V2.30713H14.2986C14.4454 2.30713 14.5814 2.33851 14.7061 2.40036C14.8308 2.46221 14.9382 2.54381 15.0293 2.64442C15.1203 2.74504 15.191 2.85858 15.2429 2.98578C15.2946 3.11279 15.3199 3.24128 15.3199 3.37162C15.3205 3.55917 15.2737 3.74379 15.1839 3.90811C15.0961 4.06633 14.9664 4.19681 14.8091 4.28491L15.5273 5.45537H14.7125L14.0826 4.44018H13.6116V5.45556L12.8895 5.45537ZM13.6118 3.80547H14.2718C14.3569 3.80547 14.4306 3.76559 14.4923 3.68399C14.5543 3.60258 14.5847 3.49864 14.5847 3.37162C14.5847 3.24128 14.5495 3.13808 14.4791 3.06073C14.4087 2.98411 14.3323 2.9459 14.25 2.9459H13.6116L13.6118 3.80547ZM15.8837 2.30713H16.606V5.45537H15.8837V2.30713ZM17.1428 3.91661H18.4995V4.55537H17.1428V3.91661Z" fill="#7C7B7B"/>
<mask id="mask3_162_810" style="mask-type:luminance" maskUnits="userSpaceOnUse" x="-96" y="-26" width="156" height="111">
<path d="M-95.2809 -25.1404H59.0656V84.7569H-95.2809V-25.1404Z" fill="white"/>
</mask>
<g mask="url(#mask3_162_810)">
<path d="M20.9125 3.22946L20.8153 3.16263C20.6717 3.07794 20.5178 3.01235 20.3575 2.96749C20.2659 2.9414 20.1711 2.9281 20.0759 2.92798C19.9522 2.92798 19.8577 2.94995 19.7916 2.99444C19.7595 3.01534 19.7335 3.04436 19.7162 3.07858C19.6989 3.11281 19.6908 3.15103 19.6927 3.1894L19.7367 3.32269L19.8623 3.41758C19.9164 3.44564 19.9841 3.47186 20.0649 3.49549C20.1456 3.51912 20.2385 3.54589 20.3445 3.57524C20.482 3.61253 20.6173 3.65771 20.7497 3.71057C20.8614 3.75405 20.9654 3.8154 21.0577 3.89223C21.1427 3.96478 21.2084 4.05285 21.2536 4.15623C21.2989 4.25961 21.322 4.38405 21.322 4.5286C21.322 4.70583 21.2888 4.85574 21.223 4.97832C21.1605 5.09707 21.0707 5.19904 20.961 5.27574C20.8467 5.35353 20.719 5.40925 20.5845 5.44004C20.4408 5.47381 20.2938 5.49085 20.1463 5.49081C19.9091 5.48971 19.6733 5.45459 19.446 5.38651C19.3321 5.35279 19.2204 5.3121 19.1114 5.26466C19.0067 5.21932 18.9064 5.16438 18.8116 5.10054L19.1292 4.4662L19.2478 4.55057C19.3125 4.59248 19.3917 4.63365 19.4856 4.67481C19.5794 4.71635 19.685 4.75346 19.8024 4.78558C19.9186 4.81799 20.0387 4.83445 20.1593 4.83451C20.4149 4.83451 20.5425 4.75586 20.5425 4.59949L20.4853 4.45328L20.3267 4.34934C20.2497 4.31449 20.1702 4.28549 20.0889 4.26257L19.7899 4.17377C19.6615 4.13547 19.5362 4.08727 19.4152 4.02958C19.3182 3.98424 19.2291 3.92353 19.1512 3.84977C19.0822 3.78441 19.0288 3.70428 18.9948 3.61531C18.9592 3.5158 18.9421 3.41053 18.9444 3.30478C18.9444 3.139 18.975 2.99315 19.0366 2.86595C19.096 2.74165 19.1816 2.63185 19.2874 2.54417C19.3963 2.45516 19.5211 2.38809 19.6552 2.34663C19.7985 2.30204 19.9477 2.27976 20.0977 2.28054C20.2096 2.28054 20.3183 2.29069 20.4239 2.31118C20.5259 2.33126 20.6266 2.3579 20.7253 2.39094C20.8998 2.45069 21.0673 2.52949 21.2249 2.62595L20.9125 3.22946Z" fill="#7C7B7B"/>
</g>
<mask id="mask4_162_810" style="mask-type:luminance" maskUnits="userSpaceOnUse" x="-96" y="-25" width="155" height="111">
<path d="M-95.5762 -24.8569H58.7703V85.0402H-95.5762V-24.8569Z" fill="white"/>
</mask>
<g mask="url(#mask4_162_810)">
<path d="M21.5645 3.85484C21.5645 3.6658 21.5975 3.47712 21.6655 3.28936C21.7315 3.1045 21.8316 2.93383 21.9605 2.78629C22.0929 2.63574 22.254 2.5135 22.4342 2.42684C22.6203 2.33527 22.8324 2.28967 23.0704 2.28967C23.349 2.28967 23.5914 2.35318 23.7969 2.4802C23.9938 2.59794 24.1528 2.77036 24.2549 2.97681L23.7001 3.36672C23.6715 3.29116 23.6298 3.22138 23.5767 3.16069L23.4136 3.02776L23.2311 2.95687L23.0524 2.93693C22.9353 2.93386 22.8196 2.96304 22.7178 3.0213C22.6255 3.07603 22.5459 3.15007 22.4844 3.23841C22.4215 3.33022 22.3747 3.43218 22.346 3.53989C22.3151 3.65106 22.2994 3.76597 22.2994 3.88143C22.2994 4.00549 22.3181 4.1253 22.355 4.24069C22.3886 4.35069 22.4406 4.45413 22.5086 4.5466C22.575 4.63503 22.6547 4.70536 22.7486 4.75724C22.8446 4.80945 22.9523 4.83613 23.0614 4.83478L23.2442 4.8106L23.4266 4.7349L23.5857 4.60198C23.6321 4.54733 23.6706 4.47976 23.7001 4.40038L24.2945 4.75078C24.247 4.8668 24.1773 4.97226 24.0893 5.06112C23.9996 5.1531 23.8965 5.23073 23.7835 5.29133C23.5562 5.41523 23.3021 5.48074 23.0436 5.48204C22.8267 5.48204 22.6276 5.43552 22.4472 5.34266C22.2688 5.25144 22.1101 5.12558 21.9803 4.97232C21.8488 4.81725 21.7454 4.64025 21.6745 4.4493C21.602 4.2596 21.5647 4.05811 21.5645 3.85484Z" fill="#7C7B7B"/>
</g>
<mask id="mask5_162_810" style="mask-type:luminance" maskUnits="userSpaceOnUse" x="-98" y="-25" width="155" height="111">
<path d="M-97.5598 -24.1196H56.7867V85.7775H-97.5598V-24.1196Z" fill="white"/>
</mask>
<g mask="url(#mask5_162_810)">
<path d="M25.9414 5.48192C25.7185 5.48192 25.5157 5.43632 25.3337 5.34457C25.1554 5.25613 24.9961 5.13338 24.8647 4.98327C24.7332 4.83261 24.6302 4.65889 24.5609 4.47078C24.4893 4.28116 24.4526 4.07995 24.4528 3.87706C24.4528 3.67029 24.4902 3.47054 24.5653 3.27817C24.6372 3.0908 24.7432 2.91857 24.8777 2.77029C25.0123 2.62366 25.1739 2.50477 25.3535 2.42026C25.5368 2.33312 25.7374 2.28955 25.9543 2.28955C26.1772 2.28955 26.3803 2.33515 26.562 2.42672C26.7408 2.51558 26.9003 2.63919 27.0313 2.79041C27.1621 2.9419 27.2643 3.11622 27.3327 3.30475C27.4022 3.49201 27.438 3.69026 27.4383 3.89017C27.4388 4.09502 27.4007 4.2981 27.3261 4.48869C27.2546 4.67577 27.1494 4.848 27.0159 4.99675C26.8824 5.14402 26.7216 5.26367 26.5426 5.349C26.3547 5.43868 26.1493 5.48413 25.9414 5.48192ZM25.1881 3.8861C25.1881 4.00703 25.2053 4.12426 25.2391 4.23817C25.2726 4.35207 25.3212 4.45324 25.3843 4.54204C25.4466 4.63022 25.5279 4.70305 25.6221 4.75509C25.7229 4.80942 25.8359 4.83676 25.9502 4.83447C26.0765 4.83447 26.1865 4.80641 26.2802 4.7501C26.3736 4.69497 26.4541 4.62023 26.5162 4.53097C26.5804 4.438 26.628 4.33448 26.657 4.22506C26.6875 4.1116 26.703 3.9946 26.7032 3.87706C26.7032 3.75577 26.6861 3.63798 26.6522 3.52444C26.6214 3.41586 26.5715 3.31369 26.505 3.22278C26.4416 3.13672 26.3604 3.06554 26.267 3.01417C26.1732 2.96247 26.0659 2.93681 25.9455 2.93681C25.8195 2.93681 25.7095 2.96414 25.6156 3.01878C25.5227 3.07269 25.4423 3.14603 25.3799 3.23386C25.3151 3.32589 25.2667 3.4286 25.2369 3.53737C25.2043 3.65071 25.1879 3.76812 25.1881 3.8861Z" fill="#7C7B7B"/>
</g>
<path d="M27.8611 5.45537V2.30713H29.2702C29.4169 2.30713 29.5526 2.33851 29.6776 2.40036C29.7998 2.46048 29.9095 2.54329 30.0012 2.64442C30.0923 2.74504 30.1631 2.85858 30.2148 2.98578C30.265 3.10816 30.2912 3.2392 30.2918 3.37162C30.2918 3.46638 30.2801 3.56077 30.2569 3.65261C30.2337 3.74168 30.1996 3.8275 30.1554 3.90811C30.0679 4.06631 29.9383 4.1968 29.7812 4.28491L30.4993 5.45537H29.6844L29.0546 4.44018H28.5833V5.45556L27.8611 5.45537ZM28.5833 3.80547H29.2438C29.3289 3.80547 29.4024 3.76559 29.4638 3.68399C29.5258 3.60258 29.5566 3.49864 29.5566 3.37162C29.5566 3.24128 29.5214 3.13808 29.451 3.06073C29.3806 2.98411 29.3038 2.9459 29.222 2.9459H28.5827L28.5833 3.80547ZM33.053 4.81697V5.45537H30.8553V2.30713H33.0128V2.9459H31.5773V3.55771H32.8106V4.14719H31.5775V4.81697H33.053Z" fill="#7C7B7B"/>
<path d="M17.8957 21.3832H9.83765V8.18176H17.8955L17.8957 21.3832Z" fill="#87BD25"/>
<path d="M25.953 21.3832H17.8955V8.18176H25.953V21.3832Z" fill="#FFCC00"/>
<path d="M34.0111 21.3832H25.953V8.18176H34.0111V21.3832Z" fill="#EF7D00"/>
<path d="M5.04569 15.7228L5.93559 13.3778L6.79102 15.7228H5.04569ZM6.35891 11.8514H5.57479L3.15149 17.7351H4.28816L4.71056 16.6095H7.11662L7.53132 17.7351H8.77341L6.35891 11.8514Z" fill="#74AB7E"/>
<mask id="mask6_162_810" style="mask-type:luminance" maskUnits="userSpaceOnUse" x="-92" y="-19" width="155" height="110">
<path d="M-91.6703 -18.969H62.6761V90.9281H-91.6703V-18.969Z" fill="white"/>
</mask>
<g mask="url(#mask6_162_810)">
<path d="M12.9449 16.848V15.1854H13.4999C14.5311 15.1937 14.8661 15.5007 14.8661 15.9868C14.8661 16.5923 14.4252 16.848 13.5703 16.848H12.9449ZM12.9449 14.3666V12.7377H13.2799C14.17 12.7377 14.5311 13.0021 14.5311 13.531C14.5311 14.0169 14.1874 14.3494 13.4647 14.3581L12.9449 14.3666ZM13.4211 11.8508H11.8165V17.7349H13.6233C15.3246 17.7349 16.0209 17.0444 16.0209 15.9868C16.0209 15.4067 15.7032 14.9466 15.0421 14.6823C15.4212 14.3836 15.6856 13.966 15.6856 13.4284C15.6856 12.5585 15.0773 11.8508 13.4211 11.8508Z" fill="#BDD684"/>
</g>
<mask id="mask7_162_810" style="mask-type:luminance" maskUnits="userSpaceOnUse" x="-96" y="-22" width="155" height="111">
<path d="M-95.8008 -21.2721H58.5457V88.625H-95.8008V-21.2721Z" fill="white"/>
</mask>
<g mask="url(#mask7_162_810)">
<path d="M22.06 11.7656C20.4914 11.7656 19.2843 12.9427 19.2843 14.7846C19.2843 16.6358 20.3948 17.821 22.0778 17.821C23.1616 17.821 23.9371 17.3945 24.4215 16.5841L23.5754 15.9616C23.232 16.5246 22.7563 16.8403 22.1218 16.8403C21.0465 16.8403 20.447 16.0895 20.447 14.7761C20.447 13.5481 21.0639 12.7469 22.0158 12.7469C22.6417 12.7469 23.0997 13.0622 23.3202 13.5994L24.3951 13.1986C24.0427 12.3715 23.3996 11.7656 22.06 11.7656Z" fill="#FFDF7D"/>
</g>
<mask id="mask8_162_810" style="mask-type:luminance" maskUnits="userSpaceOnUse" x="-103" y="-16" width="155" height="111">
<path d="M-102.918 -15.7283H51.4281V94.1688H-102.918V-15.7283Z" fill="white"/>
</mask>
<g mask="url(#mask8_162_810)">
<path d="M37.7667 23.9996C34.7296 23.9996 32.2588 21.6982 32.2588 18.8696V10.6959C32.2588 7.86685 34.7296 5.56543 37.7667 5.56543H38.3383C41.3758 5.56543 43.8466 7.86685 43.8466 10.6959V18.8696C43.8466 21.6982 41.3758 23.9996 38.3383 23.9996H37.7667Z" fill="white"/>
</g>
<mask id="mask9_162_810" style="mask-type:luminance" maskUnits="userSpaceOnUse" x="-104" y="-17" width="156" height="111">
<path d="M-103.177 -16.1664H51.1691V93.7307H-103.177V-16.1664Z" fill="white"/>
</mask>
<g mask="url(#mask9_162_810)">
<path d="M38.3383 23.0328H37.7666C35.255 23.0328 33.2189 21.169 33.2189 18.8698V10.6957C33.2189 8.39635 35.255 6.53247 37.7666 6.53247H38.3383C40.8503 6.53247 42.8864 8.39635 42.8864 10.6955V18.8694C42.8864 21.1688 40.8503 23.0328 38.3383 23.0328Z" fill="#E63312"/>
</g>
<path d="M35.6576 18.6182V10.7728H40.7273V12.376H37.6336V13.7514H39.7676V15.3662H37.6336V17.0149H40.7948V18.6182H35.6576Z" fill="white"/>
<mask id="mask10_162_810" style="mask-type:luminance" maskUnits="userSpaceOnUse" x="-99" y="-19" width="155" height="110">
<path d="M-98.4555 -18.9689H55.891V90.9282H-98.4555V-18.9689Z" fill="white"/>
</mask>
<g mask="url(#mask10_162_810)">
<path d="M27.918 16.8484V12.7551H28.5529C29.9539 12.7551 30.6328 13.5055 30.6328 14.7932C30.6328 15.9703 29.901 16.8486 28.4121 16.8486L27.918 16.8484ZM28.5619 11.8508H26.7902V17.7349H28.4383C30.5269 17.7349 31.7961 16.4817 31.7961 14.793C31.7961 12.9513 30.615 11.8508 28.5619 11.8508Z" fill="#F8B472"/>
</g>
</g>
<defs>
<clipPath id="clip0_162_810">
<rect width="44" height="24" fill="white"/>
</clipPath>
</defs>
</svg>
